AlumniSansPinstripe-Regular.ufo
<glyph name="exclam" format="2">
  <advance width="152"/>
  <unicode hex="0021"/>
  <note>
exclam
</note>
  <outline>
    <contour>
      <point x="71" y="195" type="line"/>
      <point x="80" y="195" type="line"/>
      <point x="84" y="357" type="line"/>
      <point x="84" y="630" type="line"/>
      <point x="68" y="630" type="line"/>
      <point x="68" y="357" type="line"/>
    </contour>
    <contour>
      <point x="76" y="-3" type="curve" smooth="yes"/>
      <point x="87" y="-3"/>
      <point x="92" y="2"/>
      <point x="92" y="13" type="curve" smooth="yes"/>
      <point x="92" y="24"/>
      <point x="87" y="29"/>
      <point x="76" y="29" type="curve" smooth="yes"/>
      <point x="65" y="29"/>
      <point x="60" y="24"/>
      <point x="60" y="13" type="curve" smooth="yes"/>
      <point x="60" y="2"/>
      <point x="65" y="-3"/>
    </contour>
  </outline>
</glyph>
<glyph name="numbersign" format="2">
  <advance width="652"/>
  <unicode hex="0023"/>
  <note>
numbersign
</note>
  <outline>
    <contour>
      <point x="117" y="0" type="line"/>
      <point x="134" y="0" type="line"/>
      <point x="197" y="200" type="line"/>
      <point x="386" y="200" type="line"/>
      <point x="323" y="0" type="line"/>
      <point x="341" y="0" type="line"/>
      <point x="404" y="200" type="line"/>
      <point x="544" y="200" type="line"/>
      <point x="548" y="216" type="line"/>
      <point x="408" y="216" type="line"/>
      <point x="467" y="400" type="line"/>
      <point x="607" y="400" type="line"/>
      <point x="612" y="416" type="line"/>
      <point x="472" y="416" type="line"/>
      <point x="521" y="573" type="line"/>
      <point x="503" y="573" type="line"/>
      <point x="455" y="416" type="line"/>
      <point x="265" y="416" type="line"/>
      <point x="314" y="573" type="line"/>
      <point x="298" y="573" type="line"/>
      <point x="249" y="416" type="line"/>
      <point x="108" y="416" type="line"/>
      <point x="103" y="400" type="line"/>
      <point x="244" y="400" type="line"/>
      <point x="185" y="216" type="line"/>
      <point x="44" y="216" type="line"/>
      <point x="40" y="200" type="line"/>
      <point x="181" y="200" type="line"/>
    </contour>
    <contour>
      <point x="201" y="216" type="line"/>
      <point x="260" y="400" type="line"/>
      <point x="450" y="400" type="line"/>
      <point x="391" y="216" type="line"/>
    </contour>
  </outline>
</glyph>
<glyph name="percent" format="2">
  <advance width="536"/>
  <unicode hex="0025"/>
  <note>
percent
</note>
  <outline>
    <contour>
      <point x="101" y="0" type="line"/>
      <point x="120" y="0" type="line"/>
      <point x="436" y="591" type="line"/>
      <point x="418" y="591" type="line"/>
    </contour>
    <contour>
      <point x="402" y="-5" type="curve" smooth="yes"/>
      <point x="465" y="-5"/>
      <point x="486" y="12"/>
      <point x="486" y="73" type="curve" smooth="yes"/>
      <point x="486" y="233" type="line" smooth="yes"/>
      <point x="486" y="289"/>
      <point x="465" y="306"/>
      <point x="402" y="306" type="curve" smooth="yes"/>
      <point x="339" y="306"/>
      <point x="319" y="289"/>
      <point x="319" y="233" type="curve" smooth="yes"/>
      <point x="319" y="73" type="line" smooth="yes"/>
      <point x="319" y="12"/>
      <point x="339" y="-5"/>
    </contour>
    <contour>
      <point x="402" y="12" type="curve" smooth="yes"/>
      <point x="346" y="12"/>
      <point x="334" y="30"/>
      <point x="334" y="79" type="curve" smooth="yes"/>
      <point x="334" y="227" type="line" smooth="yes"/>
      <point x="334" y="271"/>
      <point x="347" y="290"/>
      <point x="402" y="290" type="curve" smooth="yes"/>
      <point x="458" y="290"/>
      <point x="470" y="271"/>
      <point x="470" y="227" type="curve" smooth="yes"/>
      <point x="470" y="79" type="line" smooth="yes"/>
      <point x="470" y="30"/>
      <point x="457" y="12"/>
    </contour>
    <contour>
      <point x="133" y="280" type="curve" smooth="yes"/>
      <point x="196" y="280"/>
      <point x="217" y="297"/>
      <point x="217" y="358" type="curve" smooth="yes"/>
      <point x="217" y="518" type="line" smooth="yes"/>
      <point x="217" y="574"/>
      <point x="196" y="591"/>
      <point x="133" y="591" type="curve" smooth="yes"/>
      <point x="70" y="591"/>
      <point x="50" y="574"/>
      <point x="50" y="518" type="curve" smooth="yes"/>
      <point x="50" y="358" type="line" smooth="yes"/>
      <point x="50" y="297"/>
      <point x="70" y="280"/>
    </contour>
    <contour>
      <point x="133" y="297" type="curve" smooth="yes"/>
      <point x="77" y="297"/>
      <point x="65" y="315"/>
      <point x="65" y="364" type="curve" smooth="yes"/>
      <point x="65" y="512" type="line" smooth="yes"/>
      <point x="65" y="556"/>
      <point x="78" y="575"/>
      <point x="133" y="575" type="curve" smooth="yes"/>
      <point x="189" y="575"/>
      <point x="201" y="556"/>
      <point x="201" y="512" type="curve" smooth="yes"/>
      <point x="201" y="364" type="line" smooth="yes"/>
      <point x="201" y="315"/>
      <point x="188" y="297"/>
    </contour>
  </outline>
</glyph>
<glyph name="quotesingle" format="2">
  <advance width="136"/>
  <unicode hex="0027"/>
  <note>
quotesingle
</note>
  <outline>
    <contour>
      <point x="62" y="431" type="line"/>
      <point x="70" y="431" type="line"/>
      <point x="76" y="631" type="line"/>
      <point x="60" y="631" type="line"/>
    </contour>
  </outline>
</glyph>
<glyph name="period" format="2">
  <advance width="132"/>
  <unicode hex="002E"/>
  <note>
period
</note>
  <outline>
    <contour>
      <point x="66" y="-3" type="curve" smooth="yes"/>
      <point x="77" y="-3"/>
      <point x="82" y="2"/>
      <point x="82" y="13" type="curve" smooth="yes"/>
      <point x="82" y="24"/>
      <point x="77" y="29"/>
      <point x="66" y="29" type="curve" smooth="yes"/>
      <point x="55" y="29"/>
      <point x="50" y="24"/>
      <point x="50" y="13" type="curve" smooth="yes"/>
      <point x="50" y="2"/>
      <point x="55" y="-3"/>
    </contour>
  </outline>
</glyph>
<glyph name="zero" format="2">
  <advance width="412"/>
  <unicode hex="0030"/>
  <note>
zero
</note>
  <outline>
    <contour>
      <point x="205" y="-12" type="curve" smooth="yes"/>
      <point x="284" y="-12"/>
      <point x="347" y="41"/>
      <point x="347" y="158" type="curve" smooth="yes"/>
      <point x="347" y="428" type="line" smooth="yes"/>
      <point x="347" y="544"/>
      <point x="284" y="599"/>
      <point x="207" y="599" type="curve" smooth="yes"/>
      <point x="131" y="599"/>
      <point x="65" y="546"/>
      <point x="65" y="428" type="curve" smooth="yes"/>
      <point x="65" y="158" type="line" smooth="yes"/>
      <point x="65" y="41"/>
      <point x="129" y="-12"/>
    </contour>
    <contour>
      <point x="206" y="4" type="curve" smooth="yes"/>
      <point x="134" y="4"/>
      <point x="81" y="63"/>
      <point x="81" y="161" type="curve" smooth="yes"/>
      <point x="81" y="426" type="line" smooth="yes"/>
      <point x="81" y="524"/>
      <point x="134" y="583"/>
      <point x="206" y="583" type="curve" smooth="yes"/>
      <point x="278" y="583"/>
      <point x="331" y="524"/>
      <point x="331" y="426" type="curve" smooth="yes"/>
      <point x="331" y="161" type="line" smooth="yes"/>
      <point x="331" y="63"/>
      <point x="279" y="4"/>
    </contour>
  </outline>
</glyph>
<glyph name="four" format="2">
  <advance width="364"/>
  <unicode hex="0034"/>
  <note>
four
</note>
  <outline>
    <contour>
      <point x="261" y="0" type="line"/>
      <point x="277" y="0" type="line"/>
      <point x="277" y="119" type="line"/>
      <point x="329" y="119" type="line"/>
      <point x="329" y="135" type="line"/>
      <point x="277" y="135" type="line"/>
      <point x="277" y="591" type="line"/>
      <point x="264" y="591" type="line"/>
      <point x="35" y="134" type="line"/>
      <point x="35" y="119" type="line"/>
      <point x="261" y="119" type="line"/>
    </contour>
    <contour>
      <point x="53" y="135" type="line"/>
      <point x="261" y="549" type="line"/>
      <point x="261" y="135" type="line"/>
    </contour>
  </outline>
</glyph>
<glyph name="nine" format="2">
  <advance width="428"/>
  <unicode hex="0039"/>
  <note>
nine
</note>
  <guideline x="-23" y="-8" angle="0"/>
  <outline>
    <contour>
      <point x="215" y="-9" type="curve" smooth="yes"/>
      <point x="300" y="-9"/>
      <point x="361" y="46"/>
      <point x="361" y="134" type="curve" smooth="yes"/>
      <point x="361" y="435" type="line" smooth="yes"/>
      <point x="361" y="586"/>
      <point x="266" y="593"/>
      <point x="213" y="593" type="curve" smooth="yes"/>
      <point x="140" y="593"/>
      <point x="63" y="571"/>
      <point x="63" y="426" type="curve" smooth="yes"/>
      <point x="63" y="379" type="line" smooth="yes"/>
      <point x="63" y="266"/>
      <point x="120" y="229"/>
      <point x="202" y="229" type="curve" smooth="yes"/>
      <point x="270" y="229"/>
      <point x="312" y="258"/>
      <point x="344" y="296" type="curve"/>
      <point x="344" y="130" type="line" smooth="yes"/>
      <point x="344" y="59"/>
      <point x="295" y="7"/>
      <point x="215" y="7" type="curve" smooth="yes"/>
      <point x="140" y="7"/>
      <point x="96" y="44"/>
      <point x="96" y="124" type="curve" smooth="yes"/>
      <point x="96" y="135" type="line"/>
      <point x="80" y="135" type="line"/>
      <point x="80" y="128" type="line" smooth="yes"/>
      <point x="80" y="35"/>
      <point x="128" y="-9"/>
    </contour>
    <contour>
      <point x="202" y="245" type="curve" smooth="yes"/>
      <point x="101" y="245"/>
      <point x="79" y="314"/>
      <point x="79" y="394" type="curve" smooth="yes"/>
      <point x="79" y="426" type="line" smooth="yes"/>
      <point x="79" y="530"/>
      <point x="126" y="577"/>
      <point x="213" y="577" type="curve" smooth="yes"/>
      <point x="334" y="577"/>
      <point x="345" y="492"/>
      <point x="345" y="432" type="curve" smooth="yes"/>
      <point x="345" y="327" type="line"/>
      <point x="332" y="301"/>
      <point x="283" y="245"/>
    </contour>
  </outline>
</glyph>
<glyph name="at" format="2">
  <advance width="720"/>
  <unicode hex="0040"/>
  <note>
at
</note>
  <outline>
    <contour>
      <point x="356" y="-64" type="curve" smooth="yes"/>
      <point x="460" y="-64"/>
      <point x="542" y="-40"/>
      <point x="581" y="-25" type="curve"/>
      <point x="581" y="-9" type="line"/>
      <point x="519" y="-36"/>
      <point x="406" y="-48"/>
      <point x="355" y="-48" type="curve" smooth="yes"/>
      <point x="214" y="-48"/>
      <point x="76" y="-11"/>
      <point x="76" y="248" type="curve" smooth="yes"/>
      <point x="76" y="481"/>
      <point x="182" y="577"/>
      <point x="355" y="577" type="curve" smooth="yes"/>
      <point x="576" y="577"/>
      <point x="644" y="467"/>
      <point x="644" y="304" type="curve" smooth="yes"/>
      <point x="644" y="156"/>
      <point x="607" y="94"/>
      <point x="537" y="94" type="curve" smooth="yes"/>
      <point x="489" y="94"/>
      <point x="475" y="131"/>
      <point x="475" y="175" type="curve" smooth="yes"/>
      <point x="475" y="358" type="line" smooth="yes"/>
      <point x="475" y="422"/>
      <point x="448" y="455"/>
      <point x="361" y="455" type="curve" smooth="yes"/>
      <point x="246" y="455"/>
      <point x="236" y="395"/>
      <point x="236" y="363" type="curve" smooth="yes"/>
      <point x="236" y="338" type="line"/>
      <point x="252" y="338" type="line"/>
      <point x="252" y="364" type="line" smooth="yes"/>
      <point x="252" y="418"/>
      <point x="298" y="439"/>
      <point x="359" y="439" type="curve" smooth="yes"/>
      <point x="413" y="439"/>
      <point x="458" y="423"/>
      <point x="458" y="373" type="curve" smooth="yes"/>
      <point x="458" y="344"/>
      <point x="423" y="321"/>
      <point x="363" y="304" type="curve" smooth="yes"/>
      <point x="299" y="285"/>
      <point x="227" y="259"/>
      <point x="227" y="192" type="curve" smooth="yes"/>
      <point x="227" y="124"/>
      <point x="261" y="102"/>
      <point x="337" y="102" type="curve" smooth="yes"/>
      <point x="395" y="102"/>
      <point x="443" y="124"/>
      <point x="459" y="173" type="curve"/>
      <point x="459" y="126"/>
      <point x="475" y="78"/>
      <point x="537" y="78" type="curve" smooth="yes"/>
      <point x="631" y="78"/>
      <point x="660" y="169"/>
      <point x="660" y="317" type="curve" smooth="yes"/>
      <point x="660" y="520"/>
      <point x="546" y="593"/>
      <point x="355" y="593" type="curve" smooth="yes"/>
      <point x="148" y="593"/>
      <point x="60" y="467"/>
      <point x="60" y="251" type="curve" smooth="yes"/>
      <point x="60" y="47"/>
      <point x="127" y="-64"/>
    </contour>
    <contour>
      <point x="336" y="118" type="curve" smooth="yes"/>
      <point x="273" y="118"/>
      <point x="243" y="136"/>
      <point x="243" y="185" type="curve" smooth="yes"/>
      <point x="243" y="252"/>
      <point x="307" y="271"/>
      <point x="365" y="288" type="curve" smooth="yes"/>
      <point x="402" y="299"/>
      <point x="447" y="317"/>
      <point x="459" y="335" type="curve"/>
      <point x="459" y="236" type="line" smooth="yes"/>
      <point x="459" y="168"/>
      <point x="419" y="118"/>
    </contour>
  </outline>
</glyph>
<glyph name="B" format="2">
  <advance width="414"/>
  <unicode hex="0042"/>
  <note>
B
</note>
  <outline>
    <contour>
      <point x="76" y="0" type="line"/>
      <point x="230" y="0" type="line" smooth="yes"/>
      <point x="303" y="0"/>
      <point x="353" y="16"/>
      <point x="353" y="120" type="curve" smooth="yes"/>
      <point x="353" y="209" type="line" smooth="yes"/>
      <point x="353" y="269"/>
      <point x="318" y="312"/>
      <point x="258" y="312" type="curve"/>
      <point x="314" y="321"/>
      <point x="348" y="363"/>
      <point x="348" y="419" type="curve" smooth="yes"/>
      <point x="348" y="494" type="line" smooth="yes"/>
      <point x="348" y="566"/>
      <point x="300" y="591"/>
      <point x="239" y="591" type="curve" smooth="yes"/>
      <point x="76" y="591" type="line"/>
    </contour>
    <contour>
      <point x="92" y="16" type="line"/>
      <point x="92" y="303" type="line"/>
      <point x="223" y="303" type="line" smooth="yes"/>
      <point x="287" y="303"/>
      <point x="337" y="284"/>
      <point x="337" y="214" type="curve" smooth="yes"/>
      <point x="337" y="125" type="line" smooth="yes"/>
      <point x="337" y="31"/>
      <point x="297" y="16"/>
      <point x="227" y="16" type="curve" smooth="yes"/>
    </contour>
    <contour>
      <point x="92" y="319" type="line"/>
      <point x="92" y="575" type="line"/>
      <point x="239" y="575" type="line" smooth="yes"/>
      <point x="292" y="575"/>
      <point x="332" y="548"/>
      <point x="332" y="496" type="curve" smooth="yes"/>
      <point x="332" y="420" type="line" smooth="yes"/>
      <point x="332" y="357"/>
      <point x="293" y="319"/>
      <point x="218" y="319" type="curve" smooth="yes"/>
    </contour>
  </outline>
</glyph>
<glyph name="D" format="2">
  <advance width="424"/>
  <unicode hex="0044"/>
  <note>
D
</note>
  <anchor x="188" y="0" name="bottom"/>
  <anchor x="120" y="296" name="center"/>
  <anchor x="194" y="591" name="top"/>
  <outline>
    <contour>
      <point x="76" y="0" type="line"/>
      <point x="232" y="0" type="line" smooth="yes"/>
      <point x="308" y="0"/>
      <point x="357" y="25"/>
      <point x="357" y="130" type="curve" smooth="yes"/>
      <point x="357" y="461" type="line" smooth="yes"/>
      <point x="357" y="566"/>
      <point x="303" y="591"/>
      <point x="232" y="591" type="curve" smooth="yes"/>
      <point x="76" y="591" type="line"/>
    </contour>
    <contour>
      <point x="92" y="16" type="line"/>
      <point x="92" y="576" type="line"/>
      <point x="232" y="576" type="line" smooth="yes"/>
      <point x="301" y="576"/>
      <point x="341" y="546"/>
      <point x="341" y="455" type="curve" smooth="yes"/>
      <point x="341" y="135" type="line" smooth="yes"/>
      <point x="341" y="39"/>
      <point x="300" y="16"/>
      <point x="232" y="16" type="curve" smooth="yes"/>
    </contour>
  </outline>
</glyph>
<glyph name="G" format="2">
  <advance width="410"/>
  <unicode hex="0047"/>
  <note>
G
</note>
  <anchor x="205" y="0" name="bottom"/>
  <anchor x="205" y="591" name="top"/>
  <outline>
    <contour>
      <point x="206" y="-12" type="curve" smooth="yes"/>
      <point x="267" y="-12"/>
      <point x="317" y="27"/>
      <point x="328" y="63" type="curve"/>
      <point x="328" y="0" type="line"/>
      <point x="344" y="0" type="line"/>
      <point x="344" y="271" type="line"/>
      <point x="221" y="271" type="line"/>
      <point x="221" y="256" type="line"/>
      <point x="328" y="256" type="line"/>
      <point x="328" y="125" type="line" smooth="yes"/>
      <point x="328" y="49"/>
      <point x="275" y="4"/>
      <point x="207" y="4" type="curve" smooth="yes"/>
      <point x="138" y="4"/>
      <point x="83" y="18"/>
      <point x="83" y="125" type="curve" smooth="yes"/>
      <point x="83" y="468" type="line" smooth="yes"/>
      <point x="83" y="566"/>
      <point x="130" y="583"/>
      <point x="207" y="583" type="curve" smooth="yes"/>
      <point x="284" y="583"/>
      <point x="328" y="566"/>
      <point x="328" y="468" type="curve" smooth="yes"/>
      <point x="328" y="401" type="line"/>
      <point x="344" y="401" type="line"/>
      <point x="344" y="469" type="line" smooth="yes"/>
      <point x="344" y="583"/>
      <point x="288" y="599"/>
      <point x="209" y="599" type="curve" smooth="yes"/>
      <point x="130" y="599"/>
      <point x="67" y="585"/>
      <point x="67" y="469" type="curve" smooth="yes"/>
      <point x="67" y="118" type="line" smooth="yes"/>
      <point x="67" y="4"/>
      <point x="130" y="-12"/>
    </contour>
  </outline>
</glyph>
<glyph name="I" format="2">
  <advance width="168"/>
  <unicode hex="0049"/>
  <note>
I
</note>
  <anchor x="85" y="0" name="bottom"/>
  <anchor x="91" y="0" name="ogonek"/>
  <anchor x="85" y="591" name="top"/>
  <anchor x="49" y="591" name="topleft"/>
  <outline>
    <contour>
      <point x="76" y="0" type="line"/>
      <point x="92" y="0" type="line"/>
      <point x="92" y="591" type="line"/>
      <point x="76" y="591" type="line"/>
    </contour>
  </outline>
</glyph>
<glyph name="N" format="2">
  <advance width="434"/>
  <unicode hex="004E"/>
  <note>
N
</note>
  <anchor x="221" y="0" name="bottom"/>
  <anchor x="227" y="591" name="top"/>
  <outline>
    <contour>
      <point x="76" y="0" type="line"/>
      <point x="92" y="0" type="line"/>
      <point x="92" y="565" type="line"/>
      <point x="337" y="0" type="line"/>
      <point x="358" y="0" type="line"/>
      <point x="358" y="591" type="line"/>
      <point x="342" y="591" type="line"/>
      <point x="342" y="29" type="line"/>
      <point x="98" y="591" type="line"/>
      <point x="76" y="591" type="line"/>
    </contour>
  </outline>
</glyph>
<glyph name="P" format="2">
  <advance width="387"/>
  <unicode hex="0050"/>
  <note>
P
</note>
  <outline>
    <contour>
      <point x="76" y="0" type="line"/>
      <point x="92" y="0" type="line"/>
      <point x="92" y="271" type="line"/>
      <point x="203" y="271" type="line" smooth="yes"/>
      <point x="325" y="271"/>
      <point x="352" y="313"/>
      <point x="352" y="418" type="curve" smooth="yes"/>
      <point x="352" y="494" type="line" smooth="yes"/>
      <point x="352" y="569"/>
      <point x="308" y="591"/>
      <point x="228" y="591" type="curve" smooth="yes"/>
      <point x="76" y="591" type="line"/>
    </contour>
    <contour>
      <point x="92" y="287" type="line"/>
      <point x="92" y="575" type="line"/>
      <point x="227" y="575" type="line" smooth="yes"/>
      <point x="312" y="575"/>
      <point x="336" y="551"/>
      <point x="336" y="471" type="curve" smooth="yes"/>
      <point x="336" y="417" type="line" smooth="yes"/>
      <point x="336" y="320"/>
      <point x="312" y="287"/>
      <point x="203" y="287" type="curve" smooth="yes"/>
    </contour>
  </outline>
</glyph>
<glyph name="Q" format="2">
  <advance width="415"/>
  <unicode hex="0051"/>
  <note>
Q
</note>
  <outline>
    <contour>
      <point x="317" y="-110" type="line"/>
      <point x="330" y="-101" type="line"/>
      <point x="275" y="-5" type="line"/>
      <point x="319" y="7"/>
      <point x="348" y="38"/>
      <point x="348" y="118" type="curve" smooth="yes"/>
      <point x="348" y="469" type="line" smooth="yes"/>
      <point x="348" y="583"/>
      <point x="285" y="599"/>
      <point x="208" y="599" type="curve" smooth="yes"/>
      <point x="131" y="599"/>
      <point x="67" y="585"/>
      <point x="67" y="469" type="curve" smooth="yes"/>
      <point x="67" y="118" type="line" smooth="yes"/>
      <point x="67" y="4"/>
      <point x="130" y="-12"/>
      <point x="206" y="-12" type="curve" smooth="yes"/>
      <point x="225" y="-12"/>
      <point x="242" y="-11"/>
      <point x="258" y="-9" type="curve"/>
    </contour>
    <contour>
      <point x="207" y="4" type="curve" smooth="yes"/>
      <point x="138" y="4"/>
      <point x="83" y="17"/>
      <point x="83" y="121" type="curve" smooth="yes"/>
      <point x="83" y="466" type="line" smooth="yes"/>
      <point x="83" y="570"/>
      <point x="138" y="583"/>
      <point x="207" y="583" type="curve" smooth="yes"/>
      <point x="275" y="583"/>
      <point x="332" y="570"/>
      <point x="332" y="466" type="curve" smooth="yes"/>
      <point x="332" y="121" type="line" smooth="yes"/>
      <point x="332" y="17"/>
      <point x="277" y="4"/>
    </contour>
  </outline>
</glyph>
<glyph name="Y" format="2">
  <advance width="290"/>
  <unicode hex="0059"/>
  <note>
Y
</note>
  <anchor x="139" y="0" name="bottom"/>
  <anchor x="140" y="591" name="top"/>
  <anchor x="32" y="591" name="topleft"/>
  <outline>
    <contour>
      <point x="130" y="0" type="line"/>
      <point x="146" y="0" type="line"/>
      <point x="146" y="253" type="line"/>
      <point x="269" y="591" type="line"/>
      <point x="252" y="591" type="line"/>
      <point x="139" y="275" type="line"/>
      <point x="38" y="591" type="line"/>
      <point x="21" y="591" type="line"/>
      <point x="130" y="253" type="line"/>
    </contour>
  </outline>
</glyph>
<glyph name="Z" format="2">
  <advance width="270"/>
  <unicode hex="005A"/>
  <note>
Z
</note>
  <anchor x="138" y="0" name="bottom"/>
  <anchor x="138" y="296" name="center"/>
  <anchor x="138" y="591" name="top"/>
  <outline>
    <contour>
      <point x="23" y="0" type="line"/>
      <point x="246" y="0" type="line"/>
      <point x="246" y="16" type="line"/>
      <point x="42" y="16" type="line"/>
      <point x="240" y="577" type="line"/>
      <point x="240" y="591" type="line"/>
      <point x="38" y="591" type="line"/>
      <point x="38" y="575" type="line"/>
      <point x="224" y="577" type="line"/>
      <point x="23" y="10" type="line"/>
    </contour>
  </outline>
</glyph>
<glyph name="bracketleft" format="2">
  <advance width="271"/>
  <unicode hex="005B"/>
  <note>
bracketleft
</note>
  <outline>
    <contour>
      <point x="76" y="-62" type="line"/>
      <point x="247" y="-62" type="line"/>
      <point x="247" y="-46" type="line"/>
      <point x="92" y="-46" type="line"/>
      <point x="92" y="614" type="line"/>
      <point x="247" y="614" type="line"/>
      <point x="247" y="630" type="line"/>
      <point x="76" y="630" type="line"/>
    </contour>
  </outline>
</glyph>
<glyph name="bracketright" format="2">
  <advance width="271"/>
  <unicode hex="005D"/>
  <note>
bracketright
</note>
  <outline>
    <contour>
      <point x="24" y="-62" type="line"/>
      <point x="195" y="-62" type="line"/>
      <point x="195" y="630" type="line"/>
      <point x="24" y="630" type="line"/>
      <point x="24" y="614" type="line"/>
      <point x="179" y="614" type="line"/>
      <point x="179" y="-46" type="line"/>
      <point x="24" y="-46" type="line"/>
    </contour>
  </outline>
</glyph>
<glyph name="asciicircum" format="2">
  <advance width="372"/>
  <unicode hex="005E"/>
  <note>
asciicircum
</note>
  <outline>
    <contour>
      <point x="50" y="467" type="line"/>
      <point x="70" y="467" type="line"/>
      <point x="186" y="615" type="line"/>
      <point x="301" y="467" type="line"/>
      <point x="322" y="467" type="line"/>
      <point x="194" y="631" type="line"/>
      <point x="178" y="631" type="line"/>
    </contour>
  </outline>
</glyph>
<glyph name="underscore" format="2">
  <advance width="723"/>
  <unicode hex="005F"/>
  <note>
underscore
</note>
  <outline>
    <contour>
      <point x="40" y="-108" type="line"/>
      <point x="683" y="-108" type="line"/>
      <point x="683" y="-92" type="line"/>
      <point x="40" y="-92" type="line"/>
    </contour>
  </outline>
</glyph>
<glyph name="b" format="2">
  <advance width="366"/>
  <unicode hex="0062"/>
  <note>
b
</note>
  <outline>
    <contour>
      <point x="188" y="-7" type="curve" smooth="yes"/>
      <point x="301" y="-7"/>
      <point x="307" y="62"/>
      <point x="307" y="124" type="curve" smooth="yes"/>
      <point x="307" y="372" type="line" smooth="yes"/>
      <point x="307" y="433"/>
      <point x="301" y="503"/>
      <point x="188" y="503" type="curve" smooth="yes"/>
      <point x="125" y="503"/>
      <point x="97" y="478"/>
      <point x="84" y="449" type="curve"/>
      <point x="84" y="630" type="line"/>
      <point x="68" y="630" type="line"/>
      <point x="68" y="0" type="line"/>
      <point x="82" y="0" type="line"/>
      <point x="84" y="47" type="line"/>
      <point x="97" y="16"/>
      <point x="121" y="-7"/>
    </contour>
    <contour>
      <point x="188" y="9" type="curve" smooth="yes"/>
      <point x="84" y="9"/>
      <point x="84" y="74"/>
      <point x="84" y="133" type="curve" smooth="yes"/>
      <point x="84" y="366" type="line" smooth="yes"/>
      <point x="84" y="434"/>
      <point x="107" y="487"/>
      <point x="188" y="487" type="curve" smooth="yes"/>
      <point x="286" y="487"/>
      <point x="291" y="422"/>
      <point x="291" y="369" type="curve" smooth="yes"/>
      <point x="291" y="133" type="line" smooth="yes"/>
      <point x="291" y="74"/>
      <point x="286" y="9"/>
    </contour>
  </outline>
</glyph>
<glyph name="c" format="2">
  <advance width="345"/>
  <unicode hex="0063"/>
  <note>
c
</note>
  <anchor x="177" y="0" name="bottom"/>
  <anchor x="177" y="495" name="top"/>
  <outline>
    <contour>
      <point x="179" y="-7" type="curve" smooth="yes"/>
      <point x="292" y="-7"/>
      <point x="298" y="62"/>
      <point x="298" y="124" type="curve" smooth="yes"/>
      <point x="298" y="167" type="line"/>
      <point x="282" y="167" type="line"/>
      <point x="282" y="127" type="line" smooth="yes"/>
      <point x="282" y="74"/>
      <point x="277" y="9"/>
      <point x="179" y="9" type="curve" smooth="yes"/>
      <point x="80" y="9"/>
      <point x="75" y="74"/>
      <point x="75" y="127" type="curve" smooth="yes"/>
      <point x="75" y="369" type="line" smooth="yes"/>
      <point x="75" y="422"/>
      <point x="80" y="487"/>
      <point x="179" y="487" type="curve" smooth="yes"/>
      <point x="277" y="487"/>
      <point x="282" y="422"/>
      <point x="282" y="369" type="curve" smooth="yes"/>
      <point x="282" y="328" type="line"/>
      <point x="298" y="328" type="line"/>
      <point x="298" y="372" type="line" smooth="yes"/>
      <point x="298" y="433"/>
      <point x="292" y="503"/>
      <point x="179" y="503" type="curve" smooth="yes"/>
      <point x="64" y="503"/>
      <point x="59" y="433"/>
      <point x="59" y="372" type="curve" smooth="yes"/>
      <point x="59" y="124" type="line" smooth="yes"/>
      <point x="59" y="62"/>
      <point x="64" y="-7"/>
    </contour>
  </outline>
</glyph>
<glyph name="d" format="2">
  <advance width="366"/>
  <unicode hex="0064"/>
  <note>
d
</note>
  <anchor x="185" y="0" name="bottom"/>
  <anchor x="185" y="248" name="center"/>
  <anchor x="185" y="630" name="top"/>
  <anchor x="347" y="513" name="topright"/>
  <outline>
    <contour>
      <point x="178" y="-7" type="curve" smooth="yes"/>
      <point x="234" y="-7"/>
      <point x="273" y="22"/>
      <point x="283" y="50" type="curve"/>
      <point x="285" y="0" type="line"/>
      <point x="298" y="0" type="line"/>
      <point x="298" y="630" type="line"/>
      <point x="282" y="630" type="line"/>
      <point x="282" y="466" type="line"/>
      <point x="274" y="474"/>
      <point x="247" y="503"/>
      <point x="178" y="503" type="curve" smooth="yes"/>
      <point x="65" y="503"/>
      <point x="59" y="433"/>
      <point x="59" y="372" type="curve" smooth="yes"/>
      <point x="59" y="124" type="line" smooth="yes"/>
      <point x="59" y="62"/>
      <point x="65" y="-7"/>
    </contour>
    <contour>
      <point x="178" y="9" type="curve" smooth="yes"/>
      <point x="75" y="9"/>
      <point x="75" y="74"/>
      <point x="75" y="127" type="curve" smooth="yes"/>
      <point x="75" y="369" type="line" smooth="yes"/>
      <point x="75" y="422"/>
      <point x="75" y="487"/>
      <point x="178" y="487" type="curve" smooth="yes"/>
      <point x="260" y="487"/>
      <point x="276" y="450"/>
      <point x="282" y="437" type="curve"/>
      <point x="282" y="127" type="line" smooth="yes"/>
      <point x="282" y="65"/>
      <point x="262" y="9"/>
    </contour>
  </outline>
</glyph>
<glyph name="e" format="2">
  <advance width="355"/>
  <unicode hex="0065"/>
  <note>
e
</note>
  <guideline x="72" y="80" angle="90"/>
  <guideline x="60" y="34" angle="90"/>
  <anchor x="178" y="0" name="bottom"/>
  <anchor x="247" y="6" name="ogonek"/>
  <anchor x="184" y="495" name="top"/>
  <outline>
    <contour>
      <point x="179" y="-7" type="curve" smooth="yes"/>
      <point x="292" y="-7"/>
      <point x="298" y="62"/>
      <point x="298" y="124" type="curve" smooth="yes"/>
      <point x="298" y="167" type="line"/>
      <point x="282" y="167" type="line"/>
      <point x="282" y="127" type="line" smooth="yes"/>
      <point x="282" y="66"/>
      <point x="277" y="9"/>
      <point x="179" y="9" type="curve" smooth="yes"/>
      <point x="80" y="9"/>
      <point x="75" y="68"/>
      <point x="75" y="127" type="curve" smooth="yes"/>
      <point x="75" y="263" type="line"/>
      <point x="298" y="263" type="line"/>
      <point x="298" y="372" type="line" smooth="yes"/>
      <point x="298" y="438"/>
      <point x="290" y="503"/>
      <point x="179" y="503" type="curve" smooth="yes"/>
      <point x="68" y="503"/>
      <point x="59" y="433"/>
      <point x="59" y="372" type="curve" smooth="yes"/>
      <point x="59" y="124" type="line" smooth="yes"/>
      <point x="59" y="62"/>
      <point x="64" y="-7"/>
    </contour>
    <contour>
      <point x="75" y="279" type="line"/>
      <point x="75" y="363" type="line" smooth="yes"/>
      <point x="75" y="438"/>
      <point x="90" y="487"/>
      <point x="179" y="487" type="curve" smooth="yes"/>
      <point x="279" y="487"/>
      <point x="282" y="433"/>
      <point x="282" y="363" type="curve" smooth="yes"/>
      <point x="282" y="279" type="line"/>
    </contour>
  </outline>
</glyph>
<glyph name="f" format="2">
  <advance width="188"/>
  <unicode hex="0066"/>
  <note>
f
</note>
  <outline>
    <contour>
      <point x="70" y="0" type="line"/>
      <point x="86" y="0" type="line"/>
      <point x="86" y="458" type="line"/>
      <point x="202" y="458" type="line"/>
      <point x="202" y="474" type="line"/>
      <point x="86" y="474" type="line"/>
      <point x="86" y="548" type="line" smooth="yes"/>
      <point x="86" y="585"/>
      <point x="97" y="621"/>
      <point x="142" y="621" type="curve" smooth="yes"/>
      <point x="161" y="621"/>
      <point x="178" y="619"/>
      <point x="202" y="616" type="curve"/>
      <point x="202" y="632" type="line"/>
      <point x="193" y="633"/>
      <point x="168" y="636"/>
      <point x="143" y="636" type="curve" smooth="yes"/>
      <point x="91" y="636"/>
      <point x="70" y="605"/>
      <point x="70" y="543" type="curve" smooth="yes"/>
      <point x="70" y="474" type="line"/>
      <point x="39" y="474" type="line"/>
      <point x="39" y="458" type="line"/>
      <point x="70" y="458" type="line"/>
    </contour>
  </outline>
</glyph>
<glyph name="g" format="2">
  <advance width="366"/>
  <unicode hex="0067"/>
  <note>
g
</note>
  <anchor x="179" y="-116" name="bottom"/>
  <anchor x="187" y="495" name="top"/>
  <outline>
    <contour>
      <point x="176" y="-115" type="curve" smooth="yes"/>
      <point x="259" y="-115"/>
      <point x="298" y="-71"/>
      <point x="298" y="5" type="curve" smooth="yes"/>
      <point x="298" y="495" type="line"/>
      <point x="285" y="495" type="line"/>
      <point x="282" y="466" type="line"/>
      <point x="274" y="474"/>
      <point x="247" y="503"/>
      <point x="178" y="503" type="curve" smooth="yes"/>
      <point x="65" y="503"/>
      <point x="59" y="433"/>
      <point x="59" y="372" type="curve" smooth="yes"/>
      <point x="59" y="153" type="line" smooth="yes"/>
      <point x="59" y="91"/>
      <point x="65" y="22"/>
      <point x="178" y="22" type="curve" smooth="yes"/>
      <point x="232" y="22"/>
      <point x="271" y="49"/>
      <point x="282" y="76" type="curve"/>
      <point x="282" y="3" type="line" smooth="yes"/>
      <point x="282" y="-78"/>
      <point x="230" y="-99"/>
      <point x="176" y="-99" type="curve" smooth="yes"/>
      <point x="153" y="-99"/>
      <point x="128" y="-97"/>
      <point x="112" y="-94" type="curve"/>
      <point x="112" y="-111" type="line"/>
      <point x="121" y="-112"/>
      <point x="146" y="-115"/>
    </contour>
    <contour>
      <point x="178" y="38" type="curve" smooth="yes"/>
      <point x="75" y="38"/>
      <point x="75" y="103"/>
      <point x="75" y="156" type="curve" smooth="yes"/>
      <point x="75" y="369" type="line" smooth="yes"/>
      <point x="75" y="422"/>
      <point x="75" y="487"/>
      <point x="178" y="487" type="curve" smooth="yes"/>
      <point x="260" y="487"/>
      <point x="276" y="450"/>
      <point x="282" y="437" type="curve"/>
      <point x="282" y="156" type="line" smooth="yes"/>
      <point x="282" y="94"/>
      <point x="262" y="38"/>
    </contour>
  </outline>
</glyph>
<glyph name="h" format="2">
  <advance width="373"/>
  <unicode hex="0068"/>
  <note>
h
</note>
  <anchor x="191" y="0" name="bottom"/>
  <anchor x="112" y="545" name="center"/>
  <anchor x="78" y="630" name="top"/>
  <outline>
    <contour>
      <point x="68" y="0" type="line"/>
      <point x="84" y="0" type="line"/>
      <point x="84" y="389" type="line"/>
      <point x="89" y="446"/>
      <point x="120" y="487"/>
      <point x="193" y="487" type="curve" smooth="yes"/>
      <point x="293" y="487"/>
      <point x="296" y="422"/>
      <point x="296" y="363" type="curve" smooth="yes"/>
      <point x="296" y="0" type="line"/>
      <point x="312" y="0" type="line"/>
      <point x="312" y="372" type="line" smooth="yes"/>
      <point x="312" y="433"/>
      <point x="306" y="503"/>
      <point x="193" y="503" type="curve" smooth="yes"/>
      <point x="130" y="503"/>
      <point x="99" y="476"/>
      <point x="84" y="445" type="curve"/>
      <point x="84" y="630" type="line"/>
      <point x="68" y="630" type="line"/>
    </contour>
  </outline>
</glyph>
<glyph name="m" format="2">
  <advance width="602"/>
  <unicode hex="006D"/>
  <note>
m
</note>
  <outline>
    <contour>
      <point x="68" y="0" type="line"/>
      <point x="84" y="0" type="line"/>
      <point x="84" y="389" type="line"/>
      <point x="89" y="446"/>
      <point x="120" y="487"/>
      <point x="193" y="487" type="curve" smooth="yes"/>
      <point x="293" y="487"/>
      <point x="296" y="422"/>
      <point x="296" y="363" type="curve" smooth="yes"/>
      <point x="296" y="0" type="line"/>
      <point x="312" y="0" type="line"/>
      <point x="312" y="372" type="line"/>
      <point x="317" y="440"/>
      <point x="349" y="487"/>
      <point x="422" y="487" type="curve" smooth="yes"/>
      <point x="522" y="487"/>
      <point x="525" y="422"/>
      <point x="525" y="363" type="curve" smooth="yes"/>
      <point x="525" y="0" type="line"/>
      <point x="541" y="0" type="line"/>
      <point x="541" y="372" type="line" smooth="yes"/>
      <point x="541" y="433"/>
      <point x="535" y="503"/>
      <point x="422" y="503" type="curve" smooth="yes"/>
      <point x="361" y="503"/>
      <point x="322" y="475"/>
      <point x="307" y="430" type="curve"/>
      <point x="298" y="470"/>
      <point x="271" y="503"/>
      <point x="193" y="503" type="curve" smooth="yes"/>
      <point x="130" y="503"/>
      <point x="99" y="476"/>
      <point x="84" y="445" type="curve"/>
      <point x="82" y="495" type="line"/>
      <point x="68" y="495" type="line"/>
    </contour>
  </outline>
</glyph>
<glyph name="o" format="2">
  <advance width="362"/>
  <unicode hex="006F"/>
  <note>
o
</note>
  <anchor x="180" y="0" name="bottom"/>
  <anchor x="180" y="248" name="center"/>
  <anchor x="203" y="0" name="ogonek"/>
  <anchor x="180" y="495" name="top"/>
  <anchor x="214" y="495" name="topright"/>
  <outline>
    <contour>
      <point x="179" y="-7" type="curve" smooth="yes"/>
      <point x="292" y="-7"/>
      <point x="303" y="62"/>
      <point x="303" y="124" type="curve" smooth="yes"/>
      <point x="303" y="372" type="line" smooth="yes"/>
      <point x="303" y="433"/>
      <point x="292" y="503"/>
      <point x="183" y="503" type="curve" smooth="yes"/>
      <point x="64" y="503"/>
      <point x="59" y="433"/>
      <point x="59" y="372" type="curve" smooth="yes"/>
      <point x="59" y="124" type="line" smooth="yes"/>
      <point x="59" y="62"/>
      <point x="64" y="-7"/>
    </contour>
    <contour>
      <point x="179" y="9" type="curve" smooth="yes"/>
      <point x="75" y="9"/>
      <point x="75" y="74"/>
      <point x="75" y="127" type="curve" smooth="yes"/>
      <point x="75" y="369" type="line" smooth="yes"/>
      <point x="75" y="422"/>
      <point x="75" y="487"/>
      <point x="183" y="487" type="curve" smooth="yes"/>
      <point x="282" y="487"/>
      <point x="287" y="422"/>
      <point x="287" y="369" type="curve" smooth="yes"/>
      <point x="287" y="127" type="line" smooth="yes"/>
      <point x="287" y="74"/>
      <point x="282" y="9"/>
    </contour>
  </outline>
</glyph>
<glyph name="s" format="2">
  <advance width="322"/>
  <unicode hex="0073"/>
  <note>
s
</note>
  <anchor x="162" y="0" name="bottom"/>
  <anchor x="165" y="495" name="top"/>
  <outline>
    <contour>
      <point x="160" y="-6" type="curve" smooth="yes"/>
      <point x="223" y="-6"/>
      <point x="280" y="19"/>
      <point x="280" y="96" type="curve" smooth="yes"/>
      <point x="280" y="134" type="line" smooth="yes"/>
      <point x="280" y="217"/>
      <point x="219" y="242"/>
      <point x="160" y="269" type="curve" smooth="yes"/>
      <point x="117" y="289"/>
      <point x="57" y="311"/>
      <point x="57" y="377" type="curve" smooth="yes"/>
      <point x="57" y="395" type="line" smooth="yes"/>
      <point x="57" y="449"/>
      <point x="95" y="486"/>
      <point x="162" y="486" type="curve" smooth="yes"/>
      <point x="229" y="486"/>
      <point x="265" y="459"/>
      <point x="265" y="395" type="curve" smooth="yes"/>
      <point x="265" y="336" type="line"/>
      <point x="281" y="336" type="line"/>
      <point x="281" y="401" type="line" smooth="yes"/>
      <point x="281" y="473"/>
      <point x="231" y="502"/>
      <point x="162" y="502" type="curve" smooth="yes"/>
      <point x="86" y="502"/>
      <point x="41" y="460"/>
      <point x="41" y="404" type="curve" smooth="yes"/>
      <point x="41" y="370" type="line" smooth="yes"/>
      <point x="41" y="304"/>
      <point x="92" y="282"/>
      <point x="155" y="254" type="curve" smooth="yes"/>
      <point x="210" y="230"/>
      <point x="264" y="209"/>
      <point x="264" y="134" type="curve" smooth="yes"/>
      <point x="264" y="96" type="line" smooth="yes"/>
      <point x="264" y="34"/>
      <point x="223" y="10"/>
      <point x="160" y="10" type="curve" smooth="yes"/>
      <point x="100" y="10"/>
      <point x="58" y="40"/>
      <point x="58" y="99" type="curve" smooth="yes"/>
      <point x="58" y="166" type="line"/>
      <point x="42" y="166" type="line"/>
      <point x="42" y="99" type="line" smooth="yes"/>
      <point x="42" y="26"/>
      <point x="91" y="-6"/>
    </contour>
  </outline>
</glyph>
<glyph name="u" format="2">
  <advance width="380"/>
  <unicode hex="0075"/>
  <note>
u
</note>
  <anchor x="190" y="0" name="bottom"/>
  <anchor x="312" y="0" name="ogonek"/>
  <anchor x="190" y="495" name="top"/>
  <anchor x="296" y="495" name="topright"/>
  <outline>
    <contour>
      <point x="187" y="-8" type="curve" smooth="yes"/>
      <point x="250" y="-8"/>
      <point x="281" y="19"/>
      <point x="296" y="50" type="curve"/>
      <point x="298" y="0" type="line"/>
      <point x="312" y="0" type="line"/>
      <point x="312" y="495" type="line"/>
      <point x="296" y="495" type="line"/>
      <point x="296" y="106" type="line"/>
      <point x="291" y="49"/>
      <point x="260" y="8"/>
      <point x="187" y="8" type="curve" smooth="yes"/>
      <point x="87" y="8"/>
      <point x="84" y="73"/>
      <point x="84" y="132" type="curve" smooth="yes"/>
      <point x="84" y="495" type="line"/>
      <point x="68" y="495" type="line"/>
      <point x="68" y="123" type="line" smooth="yes"/>
      <point x="68" y="62"/>
      <point x="74" y="-8"/>
    </contour>
  </outline>
</glyph>
<glyph name="v" format="2">
  <advance width="297"/>
  <unicode hex="0076"/>
  <note>
v
</note>
  <outline>
    <contour>
      <point x="139" y="0" type="line"/>
      <point x="157" y="0" type="line"/>
      <point x="278" y="495" type="line"/>
      <point x="262" y="495" type="line"/>
      <point x="148" y="27" type="line"/>
      <point x="35" y="495" type="line"/>
      <point x="19" y="495" type="line"/>
    </contour>
  </outline>
</glyph>
<glyph name="x" format="2">
  <advance width="299"/>
  <unicode hex="0078"/>
  <note>
x
</note>
  <outline>
    <contour>
      <point x="19" y="0" type="line"/>
      <point x="37" y="0" type="line"/>
      <point x="135" y="255" type="line"/>
      <point x="163" y="255" type="line"/>
      <point x="261" y="0" type="line"/>
      <point x="280" y="0" type="line"/>
      <point x="176" y="264" type="line"/>
      <point x="270" y="495" type="line"/>
      <point x="253" y="495" type="line"/>
      <point x="162" y="271" type="line"/>
      <point x="136" y="271" type="line"/>
      <point x="52" y="495" type="line"/>
      <point x="35" y="495" type="line"/>
      <point x="121" y="263" type="line"/>
    </contour>
  </outline>
</glyph>
<glyph name="braceleft" format="2">
  <advance width="274"/>
  <unicode hex="007B"/>
  <note>
braceleft
</note>
  <outline>
    <contour>
      <point x="211" y="-137" type="curve"/>
      <point x="211" y="-122" type="line"/>
      <point x="168" y="-113"/>
      <point x="123" y="-87"/>
      <point x="123" y="-16" type="curve" smooth="yes"/>
      <point x="123" y="62"/>
      <point x="182" y="102"/>
      <point x="182" y="182" type="curve" smooth="yes"/>
      <point x="182" y="220"/>
      <point x="154" y="255"/>
      <point x="106" y="268" type="curve"/>
      <point x="153" y="279"/>
      <point x="182" y="314"/>
      <point x="182" y="356" type="curve" smooth="yes"/>
      <point x="182" y="427"/>
      <point x="123" y="477"/>
      <point x="123" y="549" type="curve" smooth="yes"/>
      <point x="123" y="609"/>
      <point x="157" y="644"/>
      <point x="211" y="651" type="curve"/>
      <point x="211" y="665" type="line"/>
      <point x="153" y="656"/>
      <point x="106" y="623"/>
      <point x="106" y="551" type="curve" smooth="yes"/>
      <point x="106" y="474"/>
      <point x="166" y="417"/>
      <point x="166" y="350" type="curve" smooth="yes"/>
      <point x="166" y="307"/>
      <point x="110" y="273"/>
      <point x="57" y="273" type="curve"/>
      <point x="57" y="263" type="line"/>
      <point x="110" y="260"/>
      <point x="165" y="230"/>
      <point x="165" y="175" type="curve" smooth="yes"/>
      <point x="165" y="116"/>
      <point x="107" y="68"/>
      <point x="107" y="-16" type="curve" smooth="yes"/>
      <point x="107" y="-89"/>
      <point x="140" y="-121"/>
    </contour>
  </outline>
</glyph>
<glyph name="exclamdown" format="2">
  <advance width="152"/>
  <unicode hex="00A1"/>
  <note>
exclamdown
</note>
  <outline>
    <contour>
      <point x="68" y="-151" type="line"/>
      <point x="84" y="-151" type="line"/>
      <point x="84" y="122" type="line"/>
      <point x="80" y="284" type="line"/>
      <point x="71" y="284" type="line"/>
      <point x="68" y="122" type="line"/>
    </contour>
    <contour>
      <point x="76" y="415" type="curve" smooth="yes"/>
      <point x="87" y="415"/>
      <point x="92" y="420"/>
      <point x="92" y="431" type="curve" smooth="yes"/>
      <point x="92" y="442"/>
      <point x="87" y="447"/>
      <point x="76" y="447" type="curve" smooth="yes"/>
      <point x="65" y="447"/>
      <point x="60" y="442"/>
      <point x="60" y="431" type="curve" smooth="yes"/>
      <point x="60" y="420"/>
      <point x="65" y="415"/>
    </contour>
  </outline>
</glyph>
<glyph name="sterling" format="2">
  <advance width="397"/>
  <unicode hex="00A3"/>
  <note>
sterling
</note>
  <outline>
    <contour>
      <point x="269" y="-2" type="curve" smooth="yes"/>
      <point x="334" y="-2"/>
      <point x="351" y="35"/>
      <point x="351" y="91" type="curve" smooth="yes"/>
      <point x="351" y="136" type="line"/>
      <point x="335" y="136" type="line"/>
      <point x="335" y="81" type="line" smooth="yes"/>
      <point x="335" y="32"/>
      <point x="313" y="14"/>
      <point x="271" y="14" type="curve" smooth="yes"/>
      <point x="248" y="14"/>
      <point x="226" y="18"/>
      <point x="207" y="21" type="curve" smooth="yes"/>
      <point x="176" y="25"/>
      <point x="152" y="29"/>
      <point x="125" y="29" type="curve" smooth="yes"/>
      <point x="110" y="29"/>
      <point x="92" y="28"/>
      <point x="84" y="26" type="curve"/>
      <point x="130" y="93"/>
      <point x="160" y="167"/>
      <point x="160" y="239" type="curve" smooth="yes"/>
      <point x="160" y="251"/>
      <point x="159" y="263"/>
      <point x="157" y="275" type="curve"/>
      <point x="238" y="275" type="line"/>
      <point x="238" y="291" type="line"/>
      <point x="155" y="291" type="line"/>
      <point x="152" y="307"/>
      <point x="147" y="323"/>
      <point x="140" y="338" type="curve" smooth="yes"/>
      <point x="129" y="364"/>
      <point x="95" y="428"/>
      <point x="95" y="477" type="curve" smooth="yes"/>
      <point x="95" y="547"/>
      <point x="144" y="579"/>
      <point x="217" y="579" type="curve" smooth="yes"/>
      <point x="278" y="579"/>
      <point x="336" y="552"/>
      <point x="336" y="477" type="curve" smooth="yes"/>
      <point x="336" y="450" type="line"/>
      <point x="352" y="450" type="line"/>
      <point x="352" y="482" type="line" smooth="yes"/>
      <point x="352" y="553"/>
      <point x="303" y="595"/>
      <point x="220" y="595" type="curve" smooth="yes"/>
      <point x="127" y="595"/>
      <point x="79" y="556"/>
      <point x="79" y="478" type="curve" smooth="yes"/>
      <point x="79" y="398"/>
      <point x="122" y="359"/>
      <point x="138" y="291" type="curve"/>
      <point x="61" y="291" type="line"/>
      <point x="61" y="275" type="line"/>
      <point x="141" y="275" type="line"/>
      <point x="142" y="265"/>
      <point x="143" y="254"/>
      <point x="143" y="243" type="curve" smooth="yes"/>
      <point x="143" y="152"/>
      <point x="93" y="53"/>
      <point x="50" y="14" type="curve"/>
      <point x="50" y="3" type="line"/>
      <point x="69" y="10"/>
      <point x="93" y="13"/>
      <point x="120" y="13" type="curve" smooth="yes"/>
      <point x="151" y="13"/>
      <point x="180" y="9"/>
      <point x="208" y="5" type="curve" smooth="yes"/>
      <point x="227" y="2"/>
      <point x="249" y="-2"/>
    </contour>
  </outline>
</glyph>
<glyph name="currency" format="2">
  <advance width="382"/>
  <unicode hex="00A4"/>
  <note>
currency
</note>
  <outline>
    <contour>
      <point x="57" y="159" type="line"/>
      <point x="118" y="215" type="line"/>
      <point x="137" y="199"/>
      <point x="162" y="190"/>
      <point x="191" y="190" type="curve" smooth="yes"/>
      <point x="220" y="190"/>
      <point x="245" y="199"/>
      <point x="263" y="215" type="curve"/>
      <point x="325" y="159" type="line"/>
      <point x="332" y="166" type="line"/>
      <point x="275" y="225" type="line"/>
      <point x="291" y="246"/>
      <point x="301" y="271"/>
      <point x="301" y="300" type="curve" smooth="yes"/>
      <point x="301" y="328"/>
      <point x="291" y="355"/>
      <point x="275" y="372" type="curve"/>
      <point x="332" y="434" type="line"/>
      <point x="325" y="441" type="line"/>
      <point x="265" y="384" type="line"/>
      <point x="246" y="400"/>
      <point x="219" y="410"/>
      <point x="191" y="410" type="curve" smooth="yes"/>
      <point x="162" y="410"/>
      <point x="137" y="400"/>
      <point x="118" y="384" type="curve"/>
      <point x="57" y="441" type="line"/>
      <point x="50" y="434" type="line"/>
      <point x="106" y="374" type="line"/>
      <point x="90" y="354"/>
      <point x="81" y="329"/>
      <point x="81" y="300" type="curve" smooth="yes"/>
      <point x="81" y="271"/>
      <point x="90" y="246"/>
      <point x="106" y="227" type="curve"/>
      <point x="50" y="166" type="line"/>
    </contour>
    <contour>
      <point x="191" y="206" type="curve" smooth="yes"/>
      <point x="138" y="206"/>
      <point x="97" y="247"/>
      <point x="97" y="300" type="curve" smooth="yes"/>
      <point x="97" y="353"/>
      <point x="138" y="394"/>
      <point x="191" y="394" type="curve" smooth="yes"/>
      <point x="244" y="394"/>
      <point x="285" y="353"/>
      <point x="285" y="300" type="curve" smooth="yes"/>
      <point x="285" y="247"/>
      <point x="244" y="206"/>
    </contour>
  </outline>
</glyph>
<glyph name="section" format="2">
  <advance width="429"/>
  <unicode hex="00A7"/>
  <note>
section
</note>
  <outline>
    <contour>
      <point x="179" y="-131" type="curve" smooth="yes"/>
      <point x="242" y="-131"/>
      <point x="299" y="-106"/>
      <point x="299" y="-29" type="curve" smooth="yes"/>
      <point x="299" y="9" type="line" smooth="yes"/>
      <point x="299" y="44"/>
      <point x="288" y="68"/>
      <point x="272" y="87" type="curve"/>
      <point x="324" y="93"/>
      <point x="368" y="121"/>
      <point x="368" y="188" type="curve" smooth="yes"/>
      <point x="368" y="226" type="line" smooth="yes"/>
      <point x="368" y="309"/>
      <point x="307" y="334"/>
      <point x="248" y="361" type="curve" smooth="yes"/>
      <point x="205" y="381"/>
      <point x="145" y="403"/>
      <point x="145" y="469" type="curve" smooth="yes"/>
      <point x="145" y="487" type="line" smooth="yes"/>
      <point x="145" y="541"/>
      <point x="183" y="578"/>
      <point x="250" y="578" type="curve" smooth="yes"/>
      <point x="317" y="578"/>
      <point x="353" y="551"/>
      <point x="353" y="487" type="curve" smooth="yes"/>
      <point x="353" y="428" type="line"/>
      <point x="369" y="428" type="line"/>
      <point x="369" y="493" type="line" smooth="yes"/>
      <point x="369" y="565"/>
      <point x="319" y="594"/>
      <point x="250" y="594" type="curve" smooth="yes"/>
      <point x="174" y="594"/>
      <point x="129" y="552"/>
      <point x="129" y="496" type="curve" smooth="yes"/>
      <point x="129" y="462" type="line" smooth="yes"/>
      <point x="129" y="420"/>
      <point x="149" y="396"/>
      <point x="180" y="377" type="curve"/>
      <point x="105" y="377"/>
      <point x="60" y="335"/>
      <point x="60" y="279" type="curve" smooth="yes"/>
      <point x="60" y="245" type="line" smooth="yes"/>
      <point x="60" y="179"/>
      <point x="111" y="157"/>
      <point x="174" y="129" type="curve" smooth="yes"/>
      <point x="229" y="105"/>
      <point x="283" y="84"/>
      <point x="283" y="9" type="curve" smooth="yes"/>
      <point x="283" y="-29" type="line" smooth="yes"/>
      <point x="283" y="-91"/>
      <point x="242" y="-115"/>
      <point x="179" y="-115" type="curve" smooth="yes"/>
      <point x="119" y="-115"/>
      <point x="77" y="-85"/>
      <point x="77" y="-26" type="curve" smooth="yes"/>
      <point x="77" y="41" type="line"/>
      <point x="61" y="41" type="line"/>
      <point x="61" y="-26" type="line" smooth="yes"/>
      <point x="61" y="-99"/>
      <point x="110" y="-131"/>
    </contour>
    <contour>
      <point x="256" y="102" type="curve"/>
      <point x="234" y="120"/>
      <point x="206" y="132"/>
      <point x="179" y="144" type="curve" smooth="yes"/>
      <point x="136" y="164"/>
      <point x="76" y="186"/>
      <point x="76" y="252" type="curve" smooth="yes"/>
      <point x="76" y="270" type="line" smooth="yes"/>
      <point x="76" y="324"/>
      <point x="114" y="361"/>
      <point x="181" y="361" type="curve" smooth="yes"/>
      <point x="190" y="361"/>
      <point x="198" y="360"/>
      <point x="214" y="359" type="curve"/>
      <point x="223" y="355"/>
      <point x="233" y="350"/>
      <point x="243" y="346" type="curve" smooth="yes"/>
      <point x="298" y="322"/>
      <point x="352" y="301"/>
      <point x="352" y="226" type="curve" smooth="yes"/>
      <point x="352" y="188" type="line" smooth="yes"/>
      <point x="352" y="128"/>
      <point x="314" y="104"/>
    </contour>
  </outline>
</glyph>
<glyph name="plusminus" format="2">
  <advance width="364"/>
  <unicode hex="00B1"/>
  <note>
plusminus
</note>
  <outline>
    <contour>
      <point x="174" y="160" type="line"/>
      <point x="190" y="160" type="line"/>
      <point x="190" y="284" type="line"/>
      <point x="314" y="284" type="line"/>
      <point x="314" y="300" type="line"/>
      <point x="190" y="300" type="line"/>
      <point x="190" y="424" type="line"/>
      <point x="174" y="424" type="line"/>
      <point x="174" y="300" type="line"/>
      <point x="50" y="300" type="line"/>
      <point x="50" y="284" type="line"/>
      <point x="174" y="284" type="line"/>
    </contour>
    <contour>
      <point x="50" y="0" type="line"/>
      <point x="312" y="0" type="line"/>
      <point x="312" y="16" type="line"/>
      <point x="50" y="16" type="line"/>
    </contour>
  </outline>
</glyph>
<glyph name="threesuperior" format="2">
  <advance width="267"/>
  <unicode hex="00B3"/>
  <note>
threesuperior
</note>
  <outline>
    <contour>
      <point x="133" y="238" type="curve" smooth="yes"/>
      <point x="193" y="238"/>
      <point x="222" y="272"/>
      <point x="222" y="332" type="curve" smooth="yes"/>
      <point x="222" y="355" type="line" smooth="yes"/>
      <point x="222" y="386"/>
      <point x="197" y="422"/>
      <point x="150" y="428" type="curve"/>
      <point x="189" y="434"/>
      <point x="219" y="472"/>
      <point x="219" y="512" type="curve" smooth="yes"/>
      <point x="219" y="519" type="line" smooth="yes"/>
      <point x="219" y="568"/>
      <point x="188" y="595"/>
      <point x="136" y="595" type="curve" smooth="yes"/>
      <point x="83" y="595"/>
      <point x="55" y="570"/>
      <point x="55" y="511" type="curve" smooth="yes"/>
      <point x="55" y="492" type="line"/>
      <point x="71" y="492" type="line"/>
      <point x="71" y="517" type="line" smooth="yes"/>
      <point x="71" y="557"/>
      <point x="92" y="579"/>
      <point x="136" y="579" type="curve" smooth="yes"/>
      <point x="178" y="579"/>
      <point x="203" y="552"/>
      <point x="203" y="518" type="curve" smooth="yes"/>
      <point x="203" y="514" type="line" smooth="yes"/>
      <point x="203" y="459"/>
      <point x="156" y="436"/>
      <point x="129" y="436" type="curve" smooth="yes"/>
      <point x="99" y="436" type="line"/>
      <point x="99" y="420" type="line"/>
      <point x="131" y="420" type="line" smooth="yes"/>
      <point x="165" y="420"/>
      <point x="206" y="397"/>
      <point x="206" y="346" type="curve" smooth="yes"/>
      <point x="206" y="337" type="line" smooth="yes"/>
      <point x="206" y="280"/>
      <point x="181" y="254"/>
      <point x="133" y="254" type="curve" smooth="yes"/>
      <point x="87" y="254"/>
      <point x="61" y="272"/>
      <point x="61" y="330" type="curve" smooth="yes"/>
      <point x="61" y="355" type="line"/>
      <point x="45" y="355" type="line"/>
      <point x="45" y="324" type="line" smooth="yes"/>
      <point x="45" y="260"/>
      <point x="79" y="238"/>
    </contour>
  </outline>
</glyph>
<glyph name="paragraph" format="2">
  <advance width="423"/>
  <unicode hex="00B6"/>
  <note>
paragraph
</note>
  <outline>
    <contour>
      <point x="232" y="-61" type="line"/>
      <point x="248" y="-61" type="line"/>
      <point x="248" y="574" type="line"/>
      <point x="331" y="574" type="line"/>
      <point x="331" y="-61" type="line"/>
      <point x="347" y="-61" type="line"/>
      <point x="347" y="585" type="line"/>
      <point x="243" y="585" type="line" smooth="yes"/>
      <point x="150" y="585"/>
      <point x="60" y="529"/>
      <point x="60" y="389" type="curve" smooth="yes"/>
      <point x="60" y="272"/>
      <point x="117" y="212"/>
      <point x="232" y="212" type="curve"/>
    </contour>
  </outline>
</glyph>
<glyph name="periodcentered" format="2">
  <advance width="132"/>
  <unicode hex="00B7"/>
  <note>
periodcentered
</note>
  <outline>
    <contour>
      <point x="66" y="248" type="curve" smooth="yes"/>
      <point x="77" y="248"/>
      <point x="82" y="253"/>
      <point x="82" y="264" type="curve" smooth="yes"/>
      <point x="82" y="275"/>
      <point x="77" y="280"/>
      <point x="66" y="280" type="curve" smooth="yes"/>
      <point x="55" y="280"/>
      <point x="50" y="275"/>
      <point x="50" y="264" type="curve" smooth="yes"/>
      <point x="50" y="253"/>
      <point x="55" y="248"/>
    </contour>
  </outline>
</glyph>
<glyph name="onesuperior" format="2">
  <advance width="186"/>
  <unicode hex="00B9"/>
  <note>
onesuperior
</note>
  <outline>
    <contour>
      <point x="93" y="238" type="line"/>
      <point x="109" y="238" type="line"/>
      <point x="109" y="591" type="line"/>
      <point x="98" y="591" type="line"/>
      <point x="98" y="548"/>
      <point x="89" y="532"/>
      <point x="50" y="532" type="curve"/>
      <point x="50" y="522" type="line"/>
      <point x="93" y="522" type="line"/>
    </contour>
  </outline>
</glyph>
<glyph name="ordmasculine" format="2">
  <advance width="257"/>
  <unicode hex="00BA"/>
  <note>
ordmasculine
</note>
  <outline>
    <contour>
      <point x="129" y="291" type="curve" smooth="yes"/>
      <point x="185" y="291"/>
      <point x="202" y="309"/>
      <point x="202" y="370" type="curve" smooth="yes"/>
      <point x="202" y="529" type="line" smooth="yes"/>
      <point x="202" y="585"/>
      <point x="184" y="603"/>
      <point x="129" y="603" type="curve" smooth="yes"/>
      <point x="73" y="603"/>
      <point x="55" y="586"/>
      <point x="55" y="529" type="curve" smooth="yes"/>
      <point x="55" y="370" type="line" smooth="yes"/>
      <point x="55" y="309"/>
      <point x="73" y="291"/>
    </contour>
    <contour>
      <point x="128" y="306" type="curve" smooth="yes"/>
      <point x="83" y="306"/>
      <point x="71" y="320"/>
      <point x="71" y="370" type="curve" smooth="yes"/>
      <point x="71" y="529" type="line" smooth="yes"/>
      <point x="71" y="574"/>
      <point x="85" y="590"/>
      <point x="129" y="590" type="curve" smooth="yes"/>
      <point x="172" y="590"/>
      <point x="186" y="575"/>
      <point x="186" y="529" type="curve" smooth="yes"/>
      <point x="186" y="370" type="line" smooth="yes"/>
      <point x="186" y="321"/>
      <point x="173" y="306"/>
    </contour>
  </outline>
</glyph>
<glyph name="guillemetright" format="2">
  <advance width="414"/>
  <unicode hex="00BB"/>
  <note>
guillemotright
</note>
  <outline>
    <contour>
      <point x="220" y="115" type="line"/>
      <point x="234" y="115" type="line"/>
      <point x="364" y="299" type="line"/>
      <point x="246" y="468" type="line"/>
      <point x="232" y="468" type="line"/>
      <point x="346" y="299" type="line"/>
    </contour>
    <contour>
      <point x="40" y="115" type="line"/>
      <point x="54" y="115" type="line"/>
      <point x="184" y="299" type="line"/>
      <point x="66" y="468" type="line"/>
      <point x="52" y="468" type="line"/>
      <point x="166" y="299" type="line"/>
    </contour>
  </outline>
</glyph>
<glyph name="Oslash" format="2">
  <advance width="415"/>
  <unicode hex="00D8"/>
  <note>
Oslash
</note>
  <anchor x="212" y="0" name="bottom"/>
  <anchor x="207" y="296" name="center"/>
  <anchor x="233" y="-3" name="ogonek"/>
  <anchor x="201" y="589" name="top"/>
  <anchor x="46" y="591" name="topleft"/>
  <anchor x="261" y="591" name="topright"/>
  <outline>
    <contour>
      <point x="30" y="-56" type="line"/>
      <point x="48" y="-56" type="line"/>
      <point x="90" y="28" type="line"/>
      <point x="115" y="-6"/>
      <point x="158" y="-12"/>
      <point x="206" y="-12" type="curve" smooth="yes"/>
      <point x="286" y="-12"/>
      <point x="348" y="2"/>
      <point x="348" y="118" type="curve" smooth="yes"/>
      <point x="348" y="469" type="line" smooth="yes"/>
      <point x="348" y="490"/>
      <point x="346" y="508"/>
      <point x="342" y="524" type="curve"/>
      <point x="391" y="621" type="line"/>
      <point x="374" y="621" type="line"/>
      <point x="334" y="543" type="line"/>
      <point x="312" y="591"/>
      <point x="264" y="599"/>
      <point x="208" y="599" type="curve" smooth="yes"/>
      <point x="131" y="599"/>
      <point x="67" y="585"/>
      <point x="67" y="469" type="curve" smooth="yes"/>
      <point x="67" y="118" type="line" smooth="yes"/>
      <point x="67" y="86"/>
      <point x="72" y="62"/>
      <point x="81" y="44" type="curve"/>
    </contour>
    <contour>
      <point x="207" y="4" type="curve" smooth="yes"/>
      <point x="161" y="4"/>
      <point x="121" y="10"/>
      <point x="99" y="45" type="curve"/>
      <point x="330" y="500" type="line"/>
      <point x="331" y="490"/>
      <point x="332" y="479"/>
      <point x="332" y="466" type="curve" smooth="yes"/>
      <point x="332" y="121" type="line" smooth="yes"/>
      <point x="332" y="17"/>
      <point x="277" y="4"/>
    </contour>
    <contour>
      <point x="91" y="64" type="line"/>
      <point x="86" y="79"/>
      <point x="83" y="98"/>
      <point x="83" y="121" type="curve" smooth="yes"/>
      <point x="83" y="466" type="line" smooth="yes"/>
      <point x="83" y="570"/>
      <point x="138" y="583"/>
      <point x="207" y="583" type="curve" smooth="yes"/>
      <point x="260" y="583"/>
      <point x="306" y="575"/>
      <point x="324" y="523" type="curve"/>
    </contour>
  </outline>
</glyph>
<glyph name="eth" format="2">
  <advance width="362"/>
  <unicode hex="00F0"/>
  <note>
eth
</note>
  <outline>
    <contour>
      <point x="179" y="-7" type="curve" smooth="yes"/>
      <point x="292" y="-7"/>
      <point x="303" y="62"/>
      <point x="303" y="124" type="curve" smooth="yes"/>
      <point x="303" y="516" type="line" smooth="yes"/>
      <point x="303" y="592"/>
      <point x="264" y="636"/>
      <point x="181" y="636" type="curve" smooth="yes"/>
      <point x="151" y="636"/>
      <point x="126" y="633"/>
      <point x="97" y="627" type="curve"/>
      <point x="97" y="611" type="line"/>
      <point x="131" y="619"/>
      <point x="158" y="620"/>
      <point x="181" y="620" type="curve" smooth="yes"/>
      <point x="235" y="620"/>
      <point x="287" y="599"/>
      <point x="287" y="518" type="curve" smooth="yes"/>
      <point x="287" y="464" type="line"/>
      <point x="279" y="474"/>
      <point x="247" y="503"/>
      <point x="178" y="503" type="curve" smooth="yes"/>
      <point x="65" y="503"/>
      <point x="59" y="433"/>
      <point x="59" y="372" type="curve" smooth="yes"/>
      <point x="59" y="124" type="line" smooth="yes"/>
      <point x="59" y="62"/>
      <point x="64" y="-7"/>
    </contour>
    <contour>
      <point x="179" y="9" type="curve" smooth="yes"/>
      <point x="75" y="9"/>
      <point x="75" y="74"/>
      <point x="75" y="127" type="curve" smooth="yes"/>
      <point x="75" y="369" type="line" smooth="yes"/>
      <point x="75" y="422"/>
      <point x="75" y="487"/>
      <point x="178" y="487" type="curve" smooth="yes"/>
      <point x="260" y="487"/>
      <point x="281" y="450"/>
      <point x="287" y="437" type="curve"/>
      <point x="287" y="127" type="line" smooth="yes"/>
      <point x="287" y="74"/>
      <point x="283" y="9"/>
    </contour>
    <contour>
      <point x="144" y="567" type="line"/>
      <point x="159" y="567" type="line"/>
      <point x="220" y="682" type="line"/>
      <point x="205" y="683" type="line"/>
    </contour>
  </outline>
</glyph>
<glyph name="oslash" format="2">
  <advance width="362"/>
  <unicode hex="00F8"/>
  <note>
oslash
</note>
  <anchor x="181" y="495" name="top"/>
  <outline>
    <contour>
      <point x="19" y="-46" type="line"/>
      <point x="37" y="-46" type="line"/>
      <point x="77" y="33" type="line"/>
      <point x="93" y="9"/>
      <point x="123" y="-7"/>
      <point x="179" y="-7" type="curve" smooth="yes"/>
      <point x="292" y="-7"/>
      <point x="303" y="62"/>
      <point x="303" y="124" type="curve" smooth="yes"/>
      <point x="303" y="372" type="line" smooth="yes"/>
      <point x="303" y="399"/>
      <point x="301" y="428"/>
      <point x="289" y="451" type="curve"/>
      <point x="338" y="548" type="line"/>
      <point x="321" y="548" type="line"/>
      <point x="280" y="466" type="line"/>
      <point x="262" y="488"/>
      <point x="233" y="503"/>
      <point x="183" y="503" type="curve" smooth="yes"/>
      <point x="64" y="503"/>
      <point x="59" y="433"/>
      <point x="59" y="372" type="curve" smooth="yes"/>
      <point x="59" y="124" type="line" smooth="yes"/>
      <point x="59" y="99"/>
      <point x="60" y="73"/>
      <point x="68" y="51" type="curve"/>
    </contour>
    <contour>
      <point x="179" y="9" type="curve" smooth="yes"/>
      <point x="125" y="9"/>
      <point x="99" y="27"/>
      <point x="86" y="51" type="curve"/>
      <point x="279" y="432" type="line"/>
      <point x="286" y="412"/>
      <point x="287" y="390"/>
      <point x="287" y="369" type="curve" smooth="yes"/>
      <point x="287" y="127" type="line" smooth="yes"/>
      <point x="287" y="74"/>
      <point x="282" y="9"/>
    </contour>
    <contour>
      <point x="79" y="72" type="line"/>
      <point x="75" y="90"/>
      <point x="75" y="109"/>
      <point x="75" y="127" type="curve" smooth="yes"/>
      <point x="75" y="369" type="line" smooth="yes"/>
      <point x="75" y="422"/>
      <point x="75" y="487"/>
      <point x="183" y="487" type="curve" smooth="yes"/>
      <point x="231" y="487"/>
      <point x="257" y="472"/>
      <point x="271" y="450" type="curve"/>
    </contour>
  </outline>
</glyph>
<glyph name="kgreenlandic" format="2">
  <advance width="316"/>
  <unicode hex="0138"/>
  <note>
kgreenlandic
</note>
  <outline>
    <contour>
      <point x="68" y="0" type="line"/>
      <point x="84" y="0" type="line"/>
      <point x="84" y="208" type="line"/>
      <point x="93" y="231"/>
      <point x="108" y="261"/>
      <point x="127" y="293" type="curve"/>
      <point x="277" y="0" type="line"/>
      <point x="294" y="0" type="line"/>
      <point x="137" y="309" type="line"/>
      <point x="179" y="376"/>
      <point x="237" y="444"/>
      <point x="298" y="467" type="curve"/>
      <point x="298" y="483" type="line"/>
      <point x="209" y="453"/>
      <point x="121" y="327"/>
      <point x="84" y="243" type="curve"/>
      <point x="84" y="630" type="line"/>
      <point x="68" y="630" type="line"/>
    </contour>
  </outline>
</glyph>
<glyph name="Eng" format="2">
  <advance width="433"/>
  <unicode hex="014A"/>
  <note>
Eng
</note>
  <outline>
    <contour>
      <point x="347" y="-23" type="line"/>
      <point x="357" y="0" type="line"/>
      <point x="357" y="591" type="line"/>
      <point x="342" y="591" type="line"/>
      <point x="342" y="29" type="line"/>
      <point x="98" y="591" type="line"/>
      <point x="76" y="591" type="line"/>
      <point x="76" y="0" type="line"/>
      <point x="92" y="0" type="line"/>
      <point x="92" y="565" type="line"/>
    </contour>
    <contour>
      <point x="284" y="-116" type="curve" smooth="yes"/>
      <point x="333" y="-116"/>
      <point x="357" y="-86"/>
      <point x="357" y="-33" type="curve" smooth="yes"/>
      <point x="357" y="0" type="line"/>
      <point x="341" y="0" type="line"/>
      <point x="341" y="-32" type="line" smooth="yes"/>
      <point x="341" y="-68"/>
      <point x="328" y="-101"/>
      <point x="285" y="-101" type="curve" smooth="yes"/>
      <point x="266" y="-101"/>
      <point x="249" y="-99"/>
      <point x="235" y="-97" type="curve"/>
      <point x="235" y="-113" type="line"/>
      <point x="234" y="-113"/>
      <point x="259" y="-116"/>
    </contour>
  </outline>
</glyph>
<glyph name="OE" format="2">
  <advance width="602"/>
  <unicode hex="0152"/>
  <note>
OE
</note>
  <anchor x="454" y="0" name="bottom"/>
  <anchor x="207" y="296" name="center"/>
  <anchor x="558" y="0" name="ogonek"/>
  <anchor x="454" y="591" name="top"/>
  <anchor x="303" y="591" name="topleft"/>
  <anchor x="261" y="591" name="topright"/>
  <outline>
    <contour>
      <point x="206" y="-12" type="curve" smooth="yes"/>
      <point x="262" y="-12"/>
      <point x="309" y="-5"/>
      <point x="332" y="38" type="curve"/>
      <point x="332" y="0" type="line"/>
      <point x="577" y="0" type="line"/>
      <point x="577" y="16" type="line"/>
      <point x="348" y="16" type="line"/>
      <point x="348" y="303" type="line"/>
      <point x="526" y="303" type="line"/>
      <point x="526" y="319" type="line"/>
      <point x="348" y="319" type="line"/>
      <point x="348" y="575" type="line"/>
      <point x="577" y="575" type="line"/>
      <point x="577" y="591" type="line"/>
      <point x="332" y="591" type="line"/>
      <point x="332" y="548" type="line"/>
      <point x="309" y="591"/>
      <point x="262" y="599"/>
      <point x="208" y="599" type="curve" smooth="yes"/>
      <point x="131" y="599"/>
      <point x="67" y="585"/>
      <point x="67" y="469" type="curve" smooth="yes"/>
      <point x="67" y="118" type="line" smooth="yes"/>
      <point x="67" y="4"/>
      <point x="130" y="-12"/>
    </contour>
    <contour>
      <point x="207" y="4" type="curve" smooth="yes"/>
      <point x="138" y="4"/>
      <point x="83" y="17"/>
      <point x="83" y="121" type="curve" smooth="yes"/>
      <point x="83" y="466" type="line" smooth="yes"/>
      <point x="83" y="570"/>
      <point x="138" y="583"/>
      <point x="207" y="583" type="curve" smooth="yes"/>
      <point x="275" y="583"/>
      <point x="332" y="570"/>
      <point x="332" y="466" type="curve" smooth="yes"/>
      <point x="332" y="121" type="line" smooth="yes"/>
      <point x="332" y="17"/>
      <point x="277" y="4"/>
    </contour>
  </outline>
</glyph>
<glyph name="oe" format="2">
  <advance width="583"/>
  <unicode hex="0153"/>
  <note>
oe
</note>
  <anchor x="406" y="0" name="bottom"/>
  <anchor x="180" y="248" name="center"/>
  <anchor x="475" y="6" name="ogonek"/>
  <anchor x="412" y="495" name="top"/>
  <anchor x="214" y="495" name="topright"/>
  <outline>
    <contour>
      <point x="179" y="-7" type="curve" smooth="yes"/>
      <point x="251" y="-7"/>
      <point x="281" y="21"/>
      <point x="294" y="57" type="curve"/>
      <point x="305" y="21"/>
      <point x="334" y="-7"/>
      <point x="407" y="-7" type="curve" smooth="yes"/>
      <point x="520" y="-7"/>
      <point x="526" y="62"/>
      <point x="526" y="124" type="curve" smooth="yes"/>
      <point x="526" y="167" type="line"/>
      <point x="510" y="167" type="line"/>
      <point x="510" y="127" type="line" smooth="yes"/>
      <point x="510" y="66"/>
      <point x="505" y="9"/>
      <point x="407" y="9" type="curve" smooth="yes"/>
      <point x="308" y="9"/>
      <point x="303" y="68"/>
      <point x="303" y="127" type="curve" smooth="yes"/>
      <point x="303" y="263" type="line"/>
      <point x="526" y="263" type="line"/>
      <point x="526" y="372" type="line" smooth="yes"/>
      <point x="526" y="438"/>
      <point x="518" y="503"/>
      <point x="407" y="503" type="curve" smooth="yes"/>
      <point x="336" y="503"/>
      <point x="307" y="474"/>
      <point x="295" y="437" type="curve"/>
      <point x="283" y="474"/>
      <point x="253" y="503"/>
      <point x="183" y="503" type="curve" smooth="yes"/>
      <point x="64" y="503"/>
      <point x="59" y="433"/>
      <point x="59" y="372" type="curve" smooth="yes"/>
      <point x="59" y="124" type="line" smooth="yes"/>
      <point x="59" y="62"/>
      <point x="64" y="-7"/>
    </contour>
    <contour>
      <point x="179" y="9" type="curve" smooth="yes"/>
      <point x="75" y="9"/>
      <point x="75" y="74"/>
      <point x="75" y="127" type="curve" smooth="yes"/>
      <point x="75" y="369" type="line" smooth="yes"/>
      <point x="75" y="422"/>
      <point x="75" y="487"/>
      <point x="183" y="487" type="curve" smooth="yes"/>
      <point x="282" y="487"/>
      <point x="287" y="422"/>
      <point x="287" y="369" type="curve" smooth="yes"/>
      <point x="287" y="127" type="line" smooth="yes"/>
      <point x="287" y="74"/>
      <point x="282" y="9"/>
    </contour>
    <contour>
      <point x="303" y="279" type="line"/>
      <point x="303" y="363" type="line" smooth="yes"/>
      <point x="303" y="438"/>
      <point x="318" y="487"/>
      <point x="407" y="487" type="curve" smooth="yes"/>
      <point x="507" y="487"/>
      <point x="510" y="433"/>
      <point x="510" y="363" type="curve" smooth="yes"/>
      <point x="510" y="279" type="line"/>
    </contour>
  </outline>
</glyph>
<glyph name="jdotless" format="2">
  <advance width="154"/>
  <unicode hex="0237"/>
  <anchor x="66" y="-116" name="bottom"/>
  <anchor x="78" y="495" name="top"/>
  <outline>
    <contour>
      <point x="13" y="-116" type="curve" smooth="yes"/>
      <point x="62" y="-116"/>
      <point x="86" y="-86"/>
      <point x="86" y="-33" type="curve" smooth="yes"/>
      <point x="86" y="495" type="line"/>
      <point x="70" y="495" type="line"/>
      <point x="70" y="-32" type="line" smooth="yes"/>
      <point x="70" y="-68"/>
      <point x="57" y="-101"/>
      <point x="14" y="-101" type="curve" smooth="yes"/>
      <point x="-5" y="-101"/>
      <point x="-22" y="-99"/>
      <point x="-36" y="-97" type="curve"/>
      <point x="-36" y="-113" type="line"/>
      <point x="-37" y="-113"/>
      <point x="-12" y="-116"/>
    </contour>
  </outline>
</glyph>
<glyph name="doubleprimemod" format="2">
  <advance width="171"/>
  <unicode hex="02BA"/>
  <outline>
    <contour>
      <point x="30" y="478" type="line"/>
      <point x="39" y="478" type="line"/>
      <point x="78" y="630" type="line"/>
      <point x="62" y="630" type="line"/>
    </contour>
    <contour>
      <point x="113" y="478" type="line"/>
      <point x="122" y="478" type="line"/>
      <point x="161" y="630" type="line"/>
      <point x="145" y="630" type="line"/>
    </contour>
  </outline>
</glyph>
<glyph name="gravecomb" format="2">
  <unicode hex="0300"/>
  <note>
gravecomb
</note>
  <anchor x="265" y="495" name="_top"/>
  <anchor x="246" y="432" name="_topviet"/>
  <anchor x="256" y="631" name="top"/>
  <outline>
    <contour>
      <point x="278" y="545" type="line"/>
      <point x="293" y="545" type="line"/>
      <point x="227" y="631" type="line"/>
      <point x="207" y="631" type="line"/>
    </contour>
  </outline>
</glyph>
<glyph name="acutecomb" format="2">
  <unicode hex="0301"/>
  <note>
acutecomb
</note>
  <anchor x="241" y="495" name="_top"/>
  <anchor x="194" y="436" name="_topviet"/>
  <anchor x="250" y="630" name="top"/>
  <outline>
    <contour>
      <point x="207" y="545" type="line"/>
      <point x="222" y="545" type="line"/>
      <point x="293" y="631" type="line"/>
      <point x="273" y="631" type="line"/>
    </contour>
  </outline>
</glyph>
<glyph name="circumflexcomb" format="2">
  <unicode hex="0302"/>
  <note>
circumflexcomb
</note>
  <anchor x="251" y="495" name="_top"/>
  <anchor x="251" y="591" name="top"/>
  <anchor x="299" y="505" name="topviet"/>
  <outline>
    <contour>
      <point x="161" y="546" type="line"/>
      <point x="179" y="546" type="line"/>
      <point x="251" y="618" type="line"/>
      <point x="320" y="546" type="line"/>
      <point x="340" y="546" type="line"/>
      <point x="259" y="632" type="line"/>
      <point x="244" y="632" type="line"/>
    </contour>
  </outline>
</glyph>
<glyph name="tildecomb" format="2">
  <unicode hex="0303"/>
  <note>
tildecomb
</note>
  <anchor x="249" y="495" name="_top"/>
  <anchor x="291" y="403" name="_topviet"/>
  <anchor x="249" y="572" name="top"/>
  <outline>
    <contour>
      <point x="289" y="550" type="curve" smooth="yes"/>
      <point x="314" y="550"/>
      <point x="330" y="567"/>
      <point x="334" y="592" type="curve"/>
      <point x="319" y="592" type="line"/>
      <point x="316" y="569"/>
      <point x="302" y="565"/>
      <point x="289" y="565" type="curve" smooth="yes"/>
      <point x="257" y="565"/>
      <point x="243" y="595"/>
      <point x="209" y="595" type="curve" smooth="yes"/>
      <point x="183" y="595"/>
      <point x="169" y="577"/>
      <point x="166" y="554" type="curve"/>
      <point x="181" y="554" type="line"/>
      <point x="184" y="576"/>
      <point x="197" y="580"/>
      <point x="209" y="580" type="curve" smooth="yes"/>
      <point x="237" y="580"/>
      <point x="254" y="550"/>
    </contour>
  </outline>
</glyph>
<glyph name="macroncomb" format="2">
  <unicode hex="0304"/>
  <anchor x="250" y="495" name="_top"/>
  <anchor x="250" y="554" name="top"/>
  <outline>
    <contour>
      <point x="170" y="566" type="line"/>
      <point x="330" y="566" type="line"/>
      <point x="330" y="582" type="line"/>
      <point x="170" y="582" type="line"/>
    </contour>
  </outline>
</glyph>
<glyph name="brevecomb" format="2">
  <unicode hex="0306"/>
  <note>
brevecomb
</note>
  <anchor x="246" y="495" name="_top"/>
  <anchor x="246" y="591" name="top"/>
  <outline>
    <contour>
      <point x="244" y="546" type="curve" smooth="yes"/>
      <point x="303" y="546"/>
      <point x="334" y="585"/>
      <point x="334" y="623" type="curve"/>
      <point x="318" y="623" type="line"/>
      <point x="318" y="582"/>
      <point x="280" y="562"/>
      <point x="245" y="562" type="curve" smooth="yes"/>
      <point x="211" y="562"/>
      <point x="184" y="579"/>
      <point x="183" y="623" type="curve"/>
      <point x="167" y="623" type="line"/>
      <point x="167" y="586"/>
      <point x="186" y="546"/>
    </contour>
  </outline>
</glyph>
<glyph name="hookabovecomb" format="2">
  <unicode hex="0309"/>
  <note>
hookabovecomb
</note>
  <anchor x="241" y="495" name="_top"/>
  <anchor x="194" y="442" name="_topviet"/>
  <anchor x="248" y="625" name="top"/>
  <outline>
    <contour>
      <point x="235" y="539" type="line"/>
      <point x="251" y="539" type="line"/>
      <point x="251" y="548" type="line" smooth="yes"/>
      <point x="251" y="573"/>
      <point x="301" y="575"/>
      <point x="301" y="617" type="curve" smooth="yes"/>
      <point x="301" y="622" type="line" smooth="yes"/>
      <point x="301" y="647"/>
      <point x="284" y="662"/>
      <point x="253" y="662" type="curve" smooth="yes"/>
      <point x="220" y="662"/>
      <point x="204" y="648"/>
      <point x="199" y="626" type="curve"/>
      <point x="214" y="621" type="line"/>
      <point x="218" y="639"/>
      <point x="230" y="646"/>
      <point x="253" y="646" type="curve" smooth="yes"/>
      <point x="280" y="646"/>
      <point x="285" y="632"/>
      <point x="285" y="621" type="curve" smooth="yes"/>
      <point x="285" y="617" type="line" smooth="yes"/>
      <point x="285" y="584"/>
      <point x="235" y="586"/>
      <point x="235" y="546" type="curve" smooth="yes"/>
    </contour>
  </outline>
</glyph>
<glyph name="ringcomb" format="2">
  <unicode hex="030A"/>
  <anchor x="250" y="495" name="_top"/>
  <anchor x="250" y="618" name="top"/>
  <outline>
    <contour>
      <point x="251" y="542" type="curve" smooth="yes"/>
      <point x="281" y="542"/>
      <point x="304" y="566"/>
      <point x="304" y="595" type="curve" smooth="yes"/>
      <point x="304" y="624"/>
      <point x="281" y="648"/>
      <point x="250" y="648" type="curve" smooth="yes"/>
      <point x="220" y="648"/>
      <point x="196" y="624"/>
      <point x="196" y="595" type="curve" smooth="yes"/>
      <point x="196" y="566"/>
      <point x="220" y="542"/>
    </contour>
    <contour>
      <point x="250" y="558" type="curve" smooth="yes"/>
      <point x="229" y="558"/>
      <point x="212" y="573"/>
      <point x="212" y="595" type="curve" smooth="yes"/>
      <point x="212" y="617"/>
      <point x="229" y="632"/>
      <point x="250" y="632" type="curve" smooth="yes"/>
      <point x="271" y="632"/>
      <point x="288" y="617"/>
      <point x="288" y="595" type="curve" smooth="yes"/>
      <point x="288" y="573"/>
      <point x="271" y="558"/>
    </contour>
  </outline>
</glyph>
<glyph name="caroncomb" format="2">
  <unicode hex="030C"/>
  <anchor x="241" y="495" name="_top"/>
  <anchor x="241" y="630" name="top"/>
  <outline>
    <contour>
      <point x="244" y="539" type="line"/>
      <point x="259" y="539" type="line"/>
      <point x="340" y="625" type="line"/>
      <point x="320" y="625" type="line"/>
      <point x="251" y="553" type="line"/>
      <point x="179" y="625" type="line"/>
      <point x="161" y="625" type="line"/>
    </contour>
  </outline>
</glyph>
<glyph name="dblgravecomb" format="2">
  <unicode hex="030F"/>
  <anchor x="266" y="495" name="_top"/>
  <anchor x="253" y="631" name="top"/>
  <outline>
    <contour>
      <point x="297" y="545" type="line"/>
      <point x="312" y="545" type="line"/>
      <point x="246" y="631" type="line"/>
      <point x="226" y="631" type="line"/>
    </contour>
    <contour>
      <point x="259" y="544" type="line"/>
      <point x="274" y="544" type="line"/>
      <point x="208" y="630" type="line"/>
      <point x="188" y="630" type="line"/>
    </contour>
  </outline>
</glyph>
<glyph name="dotbelowcomb" format="2">
  <unicode hex="0323"/>
  <note>
dotbelowcomb
</note>
  <anchor x="250" y="0" name="_bottom"/>
  <anchor x="250" y="-113" name="bottom"/>
  <outline>
    <contour>
      <point x="250" y="-80" type="curve" smooth="yes"/>
      <point x="260" y="-80"/>
      <point x="264" y="-76"/>
      <point x="264" y="-66" type="curve" smooth="yes"/>
      <point x="264" y="-56"/>
      <point x="260" y="-52"/>
      <point x="250" y="-52" type="curve" smooth="yes"/>
      <point x="240" y="-52"/>
      <point x="236" y="-56"/>
      <point x="236" y="-66" type="curve" smooth="yes"/>
      <point x="236" y="-76"/>
      <point x="240" y="-80"/>
    </contour>
  </outline>
</glyph>
<glyph name="dieresisbelowcomb" format="2">
  <unicode hex="0324"/>
  <anchor x="251" y="0" name="_bottom"/>
  <anchor x="251" y="-77" name="bottom"/>
  <outline>
    <contour>
      <point x="289" y="-54" type="curve" smooth="yes"/>
      <point x="298" y="-54"/>
      <point x="303" y="-49"/>
      <point x="303" y="-40" type="curve" smooth="yes"/>
      <point x="303" y="-31"/>
      <point x="298" y="-26"/>
      <point x="289" y="-26" type="curve" smooth="yes"/>
      <point x="280" y="-26"/>
      <point x="275" y="-31"/>
      <point x="275" y="-40" type="curve" smooth="yes"/>
      <point x="275" y="-49"/>
      <point x="280" y="-54"/>
    </contour>
    <contour>
      <point x="212" y="-54" type="curve" smooth="yes"/>
      <point x="221" y="-54"/>
      <point x="226" y="-49"/>
      <point x="226" y="-40" type="curve" smooth="yes"/>
      <point x="226" y="-31"/>
      <point x="221" y="-26"/>
      <point x="212" y="-26" type="curve" smooth="yes"/>
      <point x="203" y="-26"/>
      <point x="198" y="-31"/>
      <point x="198" y="-40" type="curve" smooth="yes"/>
      <point x="198" y="-49"/>
      <point x="203" y="-54"/>
    </contour>
  </outline>
</glyph>
<glyph name="strokeshortcomb" format="2">
  <unicode hex="0335"/>
  <anchor x="251" y="217" name="_center"/>
  <outline>
    <contour>
      <point x="165" y="210" type="line"/>
      <point x="336" y="210" type="line"/>
      <point x="336" y="225" type="line"/>
      <point x="165" y="225" type="line"/>
    </contour>
  </outline>
</glyph>
<glyph name="Omega" format="2">
  <advance width="576"/>
  <unicode hex="03A9"/>
  <note>
uni03A9
</note>
  <outline>
    <contour>
      <point x="30" y="0" type="line"/>
      <point x="237" y="0" type="line"/>
      <point x="242" y="15" type="line"/>
      <point x="142" y="85"/>
      <point x="73" y="151"/>
      <point x="73" y="310" type="curve" smooth="yes"/>
      <point x="73" y="474"/>
      <point x="138" y="549"/>
      <point x="278" y="549" type="curve" smooth="yes"/>
      <point x="411" y="549"/>
      <point x="483" y="468"/>
      <point x="483" y="319" type="curve" smooth="yes"/>
      <point x="483" y="185"/>
      <point x="429" y="88"/>
      <point x="314" y="15" type="curve"/>
      <point x="318" y="0" type="line"/>
      <point x="546" y="0" type="line"/>
      <point x="546" y="16" type="line"/>
      <point x="344" y="16" type="line"/>
      <point x="449" y="91"/>
      <point x="499" y="188"/>
      <point x="499" y="319" type="curve" smooth="yes"/>
      <point x="499" y="476"/>
      <point x="420" y="565"/>
      <point x="278" y="565" type="curve" smooth="yes"/>
      <point x="129" y="565"/>
      <point x="57" y="482"/>
      <point x="57" y="310" type="curve" smooth="yes"/>
      <point x="57" y="155"/>
      <point x="122" y="83"/>
      <point x="212" y="16" type="curve"/>
      <point x="30" y="16" type="line"/>
    </contour>
  </outline>
</glyph>
<glyph name="E-cy" format="2">
  <advance width="408"/>
  <unicode hex="0404"/>
  <note>
uni0404
</note>
  <outline>
    <contour>
      <point x="206" y="-12" type="curve" smooth="yes"/>
      <point x="286" y="-12"/>
      <point x="344" y="2"/>
      <point x="344" y="118" type="curve" smooth="yes"/>
      <point x="344" y="189" type="line"/>
      <point x="328" y="189" type="line"/>
      <point x="328" y="116" type="line" smooth="yes"/>
      <point x="328" y="12"/>
      <point x="273" y="2"/>
      <point x="207" y="2" type="curve" smooth="yes"/>
      <point x="138" y="2"/>
      <point x="83" y="12"/>
      <point x="83" y="116" type="curve" smooth="yes"/>
      <point x="83" y="292" type="line"/>
      <point x="255" y="292" type="line"/>
      <point x="255" y="308" type="line"/>
      <point x="83" y="308" type="line"/>
      <point x="83" y="467" type="line" smooth="yes"/>
      <point x="83" y="572"/>
      <point x="132" y="584"/>
      <point x="207" y="584" type="curve" smooth="yes"/>
      <point x="278" y="584"/>
      <point x="328" y="574"/>
      <point x="328" y="473" type="curve" smooth="yes"/>
      <point x="328" y="381" type="line"/>
      <point x="344" y="381" type="line"/>
      <point x="344" y="469" type="line" smooth="yes"/>
      <point x="344" y="583"/>
      <point x="285" y="599"/>
      <point x="208" y="599" type="curve" smooth="yes"/>
      <point x="127" y="599"/>
      <point x="67" y="585"/>
      <point x="67" y="469" type="curve" smooth="yes"/>
      <point x="67" y="118" type="line" smooth="yes"/>
      <point x="67" y="4"/>
      <point x="126" y="-12"/>
    </contour>
  </outline>
</glyph>
<glyph name="Tshe-cy" format="2">
  <advance width="433"/>
  <unicode hex="040B"/>
  <note>
uni040B
</note>
  <outline>
    <contour>
      <point x="122" y="0" type="line"/>
      <point x="138" y="0" type="line"/>
      <point x="138" y="323" type="line"/>
      <point x="143" y="380"/>
      <point x="174" y="421"/>
      <point x="247" y="421" type="curve" smooth="yes"/>
      <point x="347" y="421"/>
      <point x="350" y="356"/>
      <point x="350" y="297" type="curve" smooth="yes"/>
      <point x="350" y="0" type="line"/>
      <point x="366" y="0" type="line"/>
      <point x="366" y="306" type="line" smooth="yes"/>
      <point x="366" y="367"/>
      <point x="360" y="437"/>
      <point x="247" y="437" type="curve" smooth="yes"/>
      <point x="184" y="437"/>
      <point x="153" y="410"/>
      <point x="138" y="379" type="curve"/>
      <point x="138" y="575" type="line"/>
      <point x="250" y="575" type="line"/>
      <point x="250" y="591" type="line"/>
      <point x="11" y="591" type="line"/>
      <point x="11" y="575" type="line"/>
      <point x="122" y="575" type="line"/>
    </contour>
  </outline>
</glyph>
<glyph name="Dzhe-cy" format="2">
  <advance width="397"/>
  <unicode hex="040F"/>
  <note>
uni040F
</note>
  <outline>
    <contour>
      <point x="191" y="-99" type="line"/>
      <point x="206" y="-99" type="line"/>
      <point x="206" y="0" type="line"/>
      <point x="321" y="0" type="line"/>
      <point x="321" y="591" type="line"/>
      <point x="307" y="591" type="line"/>
      <point x="307" y="16" type="line"/>
      <point x="90" y="16" type="line"/>
      <point x="90" y="591" type="line"/>
      <point x="76" y="591" type="line"/>
      <point x="76" y="0" type="line"/>
      <point x="191" y="0" type="line"/>
    </contour>
  </outline>
</glyph>
<glyph name="Be-cy" format="2">
  <advance width="378"/>
  <unicode hex="0411"/>
  <note>
uni0411
</note>
  <outline>
    <contour>
      <point x="76" y="0" type="line"/>
      <point x="196" y="0" type="line" smooth="yes"/>
      <point x="309" y="0"/>
      <point x="315" y="69"/>
      <point x="315" y="131" type="curve" smooth="yes"/>
      <point x="315" y="304" type="line" smooth="yes"/>
      <point x="315" y="365"/>
      <point x="309" y="435"/>
      <point x="196" y="435" type="curve" smooth="yes"/>
      <point x="92" y="435" type="line"/>
      <point x="92" y="575" type="line"/>
      <point x="317" y="575" type="line"/>
      <point x="317" y="591" type="line"/>
      <point x="76" y="591" type="line"/>
    </contour>
    <contour>
      <point x="92" y="16" type="line"/>
      <point x="92" y="419" type="line"/>
      <point x="196" y="419" type="line" smooth="yes"/>
      <point x="294" y="419"/>
      <point x="299" y="354"/>
      <point x="299" y="295" type="curve" smooth="yes"/>
      <point x="299" y="140" type="line" smooth="yes"/>
      <point x="299" y="81"/>
      <point x="294" y="16"/>
      <point x="196" y="16" type="curve" smooth="yes"/>
    </contour>
  </outline>
</glyph>
<glyph name="Ge-cy" format="2">
  <advance width="328"/>
  <unicode hex="0413"/>
  <note>
uni0413
</note>
  <anchor x="308" y="0" name="bottomright"/>
  <anchor x="197" y="591" name="top"/>
  <outline>
    <contour>
      <point x="76" y="0" type="line"/>
      <point x="92" y="0" type="line"/>
      <point x="92" y="575" type="line"/>
      <point x="317" y="575" type="line"/>
      <point x="317" y="591" type="line"/>
      <point x="76" y="591" type="line"/>
    </contour>
  </outline>
</glyph>
<glyph name="Ii-cy" format="2">
  <advance width="434"/>
  <unicode hex="0418"/>
  <note>
uni0418
</note>
  <anchor x="213" y="0" name="bottom"/>
  <anchor x="409" y="0" name="bottomright"/>
  <anchor x="215" y="591" name="top"/>
  <outline>
    <contour>
      <point x="358" y="0" type="line"/>
      <point x="358" y="591" type="line"/>
      <point x="336" y="591" type="line"/>
      <point x="92" y="29" type="line"/>
      <point x="92" y="591" type="line"/>
      <point x="76" y="591" type="line"/>
      <point x="76" y="0" type="line"/>
      <point x="97" y="0" type="line"/>
      <point x="342" y="565" type="line"/>
      <point x="342" y="0" type="line"/>
    </contour>
  </outline>
</glyph>
<glyph name="El-cy" format="2">
  <advance width="415"/>
  <unicode hex="041B"/>
  <note>
uni041B
</note>
  <outline>
    <contour>
      <point x="55" y="0" type="line"/>
      <point x="110" y="0"/>
      <point x="116" y="77"/>
      <point x="116" y="92" type="curve"/>
      <point x="151" y="575" type="line"/>
      <point x="323" y="575" type="line"/>
      <point x="323" y="1" type="line"/>
      <point x="339" y="1" type="line"/>
      <point x="339" y="591" type="line"/>
      <point x="135" y="591" type="line"/>
      <point x="100" y="92" type="line" smooth="yes"/>
      <point x="96" y="41"/>
      <point x="82" y="16"/>
      <point x="55" y="16" type="curve"/>
    </contour>
  </outline>
</glyph>
<glyph name="Pe-cy" format="2">
  <advance width="393"/>
  <unicode hex="041F"/>
  <note>
uni041F
</note>
  <outline>
    <contour>
      <point x="76" y="0" type="line"/>
      <point x="92" y="0" type="line"/>
      <point x="92" y="575" type="line"/>
      <point x="301" y="575" type="line"/>
      <point x="301" y="0" type="line"/>
      <point x="317" y="0" type="line"/>
      <point x="317" y="591" type="line"/>
      <point x="76" y="591" type="line"/>
    </contour>
  </outline>
</glyph>
<glyph name="Hardsign-cy" format="2">
  <advance width="380"/>
  <unicode hex="042A"/>
  <note>
uni042A
</note>
  <outline>
    <contour>
      <point x="78" y="0" type="line"/>
      <point x="202" y="0" type="line" smooth="yes"/>
      <point x="315" y="0"/>
      <point x="321" y="69"/>
      <point x="321" y="131" type="curve" smooth="yes"/>
      <point x="321" y="304" type="line" smooth="yes"/>
      <point x="321" y="365"/>
      <point x="315" y="435"/>
      <point x="202" y="435" type="curve" smooth="yes"/>
      <point x="93" y="435" type="line"/>
      <point x="93" y="591" type="line"/>
      <point x="14" y="591" type="line"/>
      <point x="14" y="575" type="line"/>
      <point x="78" y="575" type="line"/>
    </contour>
    <contour>
      <point x="93" y="15" type="line"/>
      <point x="93" y="420" type="line"/>
      <point x="198" y="420" type="line" smooth="yes"/>
      <point x="301" y="420"/>
      <point x="306" y="360"/>
      <point x="306" y="301" type="curve" smooth="yes"/>
      <point x="306" y="134" type="line" smooth="yes"/>
      <point x="306" y="75"/>
      <point x="301" y="15"/>
      <point x="198" y="15" type="curve" smooth="yes"/>
    </contour>
  </outline>
</glyph>
<glyph name="Ereversed-cy" format="2">
  <advance width="408"/>
  <unicode hex="042D"/>
  <note>
uni042D
</note>
  <outline>
    <contour>
      <point x="202" y="-12" type="curve" smooth="yes"/>
      <point x="282" y="-12"/>
      <point x="341" y="4"/>
      <point x="341" y="118" type="curve" smooth="yes"/>
      <point x="341" y="469" type="line" smooth="yes"/>
      <point x="341" y="585"/>
      <point x="281" y="599"/>
      <point x="200" y="599" type="curve" smooth="yes"/>
      <point x="123" y="599"/>
      <point x="64" y="583"/>
      <point x="64" y="469" type="curve" smooth="yes"/>
      <point x="64" y="381" type="line"/>
      <point x="80" y="381" type="line"/>
      <point x="80" y="473" type="line" smooth="yes"/>
      <point x="80" y="574"/>
      <point x="130" y="584"/>
      <point x="201" y="584" type="curve" smooth="yes"/>
      <point x="276" y="584"/>
      <point x="325" y="572"/>
      <point x="325" y="467" type="curve" smooth="yes"/>
      <point x="325" y="308" type="line"/>
      <point x="153" y="308" type="line"/>
      <point x="153" y="292" type="line"/>
      <point x="325" y="292" type="line"/>
      <point x="325" y="116" type="line" smooth="yes"/>
      <point x="325" y="12"/>
      <point x="270" y="2"/>
      <point x="201" y="2" type="curve" smooth="yes"/>
      <point x="135" y="2"/>
      <point x="80" y="12"/>
      <point x="80" y="116" type="curve" smooth="yes"/>
      <point x="80" y="189" type="line"/>
      <point x="64" y="189" type="line"/>
      <point x="64" y="118" type="line" smooth="yes"/>
      <point x="64" y="2"/>
      <point x="122" y="-12"/>
    </contour>
  </outline>
</glyph>
<glyph name="Iu-cy" format="2">
  <advance width="669"/>
  <unicode hex="042E"/>
  <note>
uni042E
</note>
  <outline>
    <contour>
      <point x="460" y="-12" type="curve" smooth="yes"/>
      <point x="540" y="-12"/>
      <point x="602" y="2"/>
      <point x="602" y="118" type="curve" smooth="yes"/>
      <point x="602" y="469" type="line" smooth="yes"/>
      <point x="602" y="583"/>
      <point x="539" y="599"/>
      <point x="462" y="599" type="curve" smooth="yes"/>
      <point x="385" y="599"/>
      <point x="321" y="585"/>
      <point x="321" y="469" type="curve" smooth="yes"/>
      <point x="321" y="118" type="line" smooth="yes"/>
      <point x="321" y="4"/>
      <point x="384" y="-12"/>
    </contour>
    <contour>
      <point x="76" y="0" type="line"/>
      <point x="92" y="0" type="line"/>
      <point x="92" y="302" type="line"/>
      <point x="330" y="302" type="line"/>
      <point x="330" y="318" type="line"/>
      <point x="92" y="318" type="line"/>
      <point x="92" y="591" type="line"/>
      <point x="76" y="591" type="line"/>
    </contour>
    <contour>
      <point x="461" y="4" type="curve" smooth="yes"/>
      <point x="392" y="4"/>
      <point x="337" y="17"/>
      <point x="337" y="121" type="curve" smooth="yes"/>
      <point x="337" y="466" type="line" smooth="yes"/>
      <point x="337" y="570"/>
      <point x="392" y="583"/>
      <point x="461" y="583" type="curve" smooth="yes"/>
      <point x="529" y="583"/>
      <point x="586" y="570"/>
      <point x="586" y="466" type="curve" smooth="yes"/>
      <point x="586" y="121" type="line" smooth="yes"/>
      <point x="586" y="17"/>
      <point x="531" y="4"/>
    </contour>
  </outline>
</glyph>
<glyph name="Ia-cy" format="2">
  <advance width="410"/>
  <unicode hex="042F"/>
  <note>
uni042F
</note>
  <anchor x="201" y="0" name="bottom"/>
  <anchor x="206" y="591" name="top"/>
  <outline>
    <contour>
      <point x="334" y="0" type="line"/>
      <point x="334" y="591" type="line"/>
      <point x="168" y="591" type="line" smooth="yes"/>
      <point x="111" y="591"/>
      <point x="62" y="566"/>
      <point x="62" y="494" type="curve" smooth="yes"/>
      <point x="62" y="411" type="line" smooth="yes"/>
      <point x="62" y="328"/>
      <point x="113" y="297"/>
      <point x="162" y="291" type="curve"/>
      <point x="141" y="288"/>
      <point x="117" y="256"/>
      <point x="107" y="224" type="curve" smooth="yes"/>
      <point x="38" y="0" type="line"/>
      <point x="55" y="0" type="line"/>
      <point x="116" y="200" type="line" smooth="yes"/>
      <point x="132" y="252"/>
      <point x="158" y="287"/>
      <point x="207" y="287" type="curve" smooth="yes"/>
      <point x="318" y="287" type="line"/>
      <point x="318" y="0" type="line"/>
    </contour>
    <contour>
      <point x="318" y="303" type="line"/>
      <point x="197" y="303" type="line" smooth="yes"/>
      <point x="129" y="303"/>
      <point x="78" y="331"/>
      <point x="78" y="409" type="curve" smooth="yes"/>
      <point x="78" y="491" type="line" smooth="yes"/>
      <point x="78" y="548"/>
      <point x="119" y="575"/>
      <point x="164" y="575" type="curve" smooth="yes"/>
      <point x="318" y="575" type="line"/>
    </contour>
  </outline>
</glyph>
<glyph name="ve-cy" format="2">
  <advance width="398"/>
  <unicode hex="0432"/>
  <note>
uni0432
</note>
  <outline>
    <contour>
      <point x="68" y="0" type="line"/>
      <point x="222" y="0" type="line" smooth="yes"/>
      <point x="295" y="0"/>
      <point x="345" y="16"/>
      <point x="345" y="120" type="curve" smooth="yes"/>
      <point x="345" y="163" type="line" smooth="yes"/>
      <point x="345" y="223"/>
      <point x="307" y="266"/>
      <point x="259" y="266" type="curve"/>
      <point x="306" y="275"/>
      <point x="340" y="317"/>
      <point x="340" y="381" type="curve" smooth="yes"/>
      <point x="340" y="398" type="line" smooth="yes"/>
      <point x="340" y="470"/>
      <point x="292" y="495"/>
      <point x="231" y="495" type="curve" smooth="yes"/>
      <point x="68" y="495" type="line"/>
    </contour>
    <contour>
      <point x="84" y="16" type="line"/>
      <point x="84" y="257" type="line"/>
      <point x="215" y="257" type="line" smooth="yes"/>
      <point x="279" y="257"/>
      <point x="329" y="238"/>
      <point x="329" y="150" type="curve" smooth="yes"/>
      <point x="329" y="125" type="line" smooth="yes"/>
      <point x="329" y="31"/>
      <point x="289" y="16"/>
      <point x="219" y="16" type="curve" smooth="yes"/>
    </contour>
    <contour>
      <point x="84" y="273" type="line"/>
      <point x="84" y="479" type="line"/>
      <point x="231" y="479" type="line" smooth="yes"/>
      <point x="284" y="479"/>
      <point x="324" y="452"/>
      <point x="324" y="400" type="curve" smooth="yes"/>
      <point x="324" y="380" type="line" smooth="yes"/>
      <point x="324" y="311"/>
      <point x="285" y="273"/>
      <point x="210" y="273" type="curve" smooth="yes"/>
    </contour>
  </outline>
</glyph>
<glyph name="de-cy" format="2">
  <advance width="436"/>
  <unicode hex="0434"/>
  <note>
uni0434
</note>
  <outline>
    <contour>
      <point x="16" y="-99" type="line"/>
      <point x="31" y="-99" type="line"/>
      <point x="31" y="-5" type="line"/>
      <point x="405" y="-5" type="line"/>
      <point x="405" y="-99" type="line"/>
      <point x="420" y="-99" type="line"/>
      <point x="420" y="11" type="line"/>
      <point x="351" y="11" type="line"/>
      <point x="351" y="495" type="line"/>
      <point x="147" y="495" type="line"/>
      <point x="112" y="92" type="line" smooth="yes"/>
      <point x="107" y="40"/>
      <point x="94" y="13"/>
      <point x="71" y="11" type="curve"/>
      <point x="16" y="11" type="line"/>
    </contour>
    <contour>
      <point x="100" y="11" type="line"/>
      <point x="124" y="32"/>
      <point x="128" y="80"/>
      <point x="128" y="92" type="curve"/>
      <point x="163" y="479" type="line"/>
      <point x="335" y="479" type="line"/>
      <point x="335" y="11" type="line"/>
    </contour>
  </outline>
</glyph>
<glyph name="zhe-cy" format="2">
  <advance width="447"/>
  <unicode hex="0436"/>
  <note>
uni0436
</note>
  <outline>
    <contour>
      <point x="14" y="0" type="line"/>
      <point x="33" y="0" type="line"/>
      <point x="183" y="254" type="line"/>
      <point x="216" y="254" type="line"/>
      <point x="216" y="0" type="line"/>
      <point x="231" y="0" type="line"/>
      <point x="231" y="254" type="line"/>
      <point x="265" y="254" type="line"/>
      <point x="414" y="0" type="line"/>
      <point x="433" y="0" type="line"/>
      <point x="278" y="261" type="line"/>
      <point x="425" y="495" type="line"/>
      <point x="407" y="495" type="line"/>
      <point x="264" y="270" type="line"/>
      <point x="231" y="270" type="line"/>
      <point x="231" y="495" type="line"/>
      <point x="216" y="495" type="line"/>
      <point x="216" y="270" type="line"/>
      <point x="183" y="270" type="line"/>
      <point x="40" y="495" type="line"/>
      <point x="22" y="495" type="line"/>
      <point x="169" y="261" type="line"/>
    </contour>
  </outline>
</glyph>
<glyph name="ze-cy" format="2">
  <advance width="396"/>
  <unicode hex="0437"/>
  <note>
uni0437
</note>
  <outline>
    <contour>
      <point x="206" y="-7" type="curve" smooth="yes"/>
      <point x="295" y="-7"/>
      <point x="347" y="50"/>
      <point x="347" y="132" type="curve" smooth="yes"/>
      <point x="347" y="186"/>
      <point x="316" y="253"/>
      <point x="251" y="264" type="curve"/>
      <point x="283" y="270"/>
      <point x="336" y="306"/>
      <point x="336" y="380" type="curve" smooth="yes"/>
      <point x="336" y="463"/>
      <point x="295" y="499"/>
      <point x="206" y="499" type="curve" smooth="yes"/>
      <point x="117" y="499"/>
      <point x="71" y="447"/>
      <point x="71" y="364" type="curve" smooth="yes"/>
      <point x="71" y="333" type="line"/>
      <point x="87" y="333" type="line"/>
      <point x="87" y="363" type="line" smooth="yes"/>
      <point x="87" y="429"/>
      <point x="122" y="483"/>
      <point x="206" y="483" type="curve" smooth="yes"/>
      <point x="290" y="483"/>
      <point x="319" y="442"/>
      <point x="319" y="381" type="curve" smooth="yes"/>
      <point x="319" y="306"/>
      <point x="265" y="271"/>
      <point x="206" y="271" type="curve" smooth="yes"/>
      <point x="142" y="271" type="line"/>
      <point x="142" y="255" type="line"/>
      <point x="206" y="255" type="line" smooth="yes"/>
      <point x="283" y="255"/>
      <point x="331" y="201"/>
      <point x="331" y="132" type="curve" smooth="yes"/>
      <point x="331" y="71"/>
      <point x="296" y="8"/>
      <point x="206" y="8" type="curve" smooth="yes"/>
      <point x="139" y="8"/>
      <point x="81" y="48"/>
      <point x="81" y="137" type="curve" smooth="yes"/>
      <point x="81" y="158" type="line"/>
      <point x="65" y="158" type="line"/>
      <point x="65" y="137" type="line" smooth="yes"/>
      <point x="65" y="44"/>
      <point x="116" y="-7"/>
    </contour>
  </outline>
</glyph>
<glyph name="ii-cy" format="2">
  <advance width="378"/>
  <unicode hex="0438"/>
  <note>
uni0438
</note>
  <anchor x="349" y="0" name="bottomright"/>
  <anchor x="195" y="495" name="top"/>
  <outline>
    <contour>
      <point x="68" y="0" type="line"/>
      <point x="91" y="0" type="line"/>
      <point x="294" y="473" type="line"/>
      <point x="294" y="0" type="line"/>
      <point x="310" y="0" type="line"/>
      <point x="310" y="495" type="line"/>
      <point x="286" y="495" type="line"/>
      <point x="84" y="24" type="line"/>
      <point x="84" y="495" type="line"/>
      <point x="68" y="495" type="line"/>
    </contour>
  </outline>
</glyph>
<glyph name="em-cy" format="2">
  <advance width="483"/>
  <unicode hex="043C"/>
  <note>
uni043C
</note>
  <outline>
    <contour>
      <point x="68" y="0" type="line"/>
      <point x="84" y="0" type="line"/>
      <point x="84" y="447" type="line"/>
      <point x="233" y="0" type="line"/>
      <point x="250" y="0" type="line"/>
      <point x="399" y="447" type="line"/>
      <point x="399" y="0" type="line"/>
      <point x="415" y="0" type="line"/>
      <point x="415" y="495" type="line"/>
      <point x="398" y="495" type="line"/>
      <point x="242" y="24" type="line"/>
      <point x="85" y="495" type="line"/>
      <point x="68" y="495" type="line"/>
    </contour>
  </outline>
</glyph>
<glyph name="en-cy" format="2">
  <advance width="382"/>
  <unicode hex="043D"/>
  <note>
uni043D
</note>
  <outline>
    <contour>
      <point x="68" y="0" type="line"/>
      <point x="84" y="0" type="line"/>
      <point x="84" y="255" type="line"/>
      <point x="298" y="255" type="line"/>
      <point x="298" y="0" type="line"/>
      <point x="314" y="0" type="line"/>
      <point x="314" y="495" type="line"/>
      <point x="298" y="495" type="line"/>
      <point x="298" y="271" type="line"/>
      <point x="84" y="271" type="line"/>
      <point x="84" y="495" type="line"/>
      <point x="68" y="495" type="line"/>
    </contour>
  </outline>
</glyph>
<glyph name="pe-cy" format="2">
  <advance width="377"/>
  <unicode hex="043F"/>
  <note>
uni043F
</note>
  <outline>
    <contour>
      <point x="68" y="0" type="line"/>
      <point x="84" y="0" type="line"/>
      <point x="84" y="479" type="line"/>
      <point x="293" y="479" type="line"/>
      <point x="293" y="0" type="line"/>
      <point x="309" y="0" type="line"/>
      <point x="309" y="495" type="line"/>
      <point x="68" y="495" type="line"/>
    </contour>
  </outline>
</glyph>
<glyph name="tse-cy" format="2">
  <advance width="381"/>
  <unicode hex="0446"/>
  <note>
uni0446
</note>
  <outline>
    <contour>
      <point x="321" y="-65" type="line"/>
      <point x="336" y="-65" type="line"/>
      <point x="336" y="16" type="line"/>
      <point x="312" y="16" type="line"/>
      <point x="312" y="495" type="line"/>
      <point x="296" y="495" type="line"/>
      <point x="296" y="16" type="line"/>
      <point x="84" y="16" type="line"/>
      <point x="84" y="495" type="line"/>
      <point x="68" y="495" type="line"/>
      <point x="68" y="0" type="line"/>
      <point x="321" y="0" type="line"/>
    </contour>
  </outline>
</glyph>
<glyph name="sha-cy" format="2">
  <advance width="544"/>
  <unicode hex="0448"/>
  <note>
uni0448
</note>
  <outline>
    <contour>
      <point x="68" y="0" type="line"/>
      <point x="476" y="0" type="line"/>
      <point x="476" y="495" type="line"/>
      <point x="460" y="495" type="line"/>
      <point x="460" y="16" type="line"/>
      <point x="278" y="16" type="line"/>
      <point x="278" y="495" type="line"/>
      <point x="262" y="495" type="line"/>
      <point x="262" y="16" type="line"/>
      <point x="84" y="16" type="line"/>
      <point x="84" y="495" type="line"/>
      <point x="68" y="495" type="line"/>
    </contour>
  </outline>
</glyph>
<glyph name="iu-cy" format="2">
  <advance width="598"/>
  <unicode hex="044E"/>
  <note>
uni044E
</note>
  <outline>
    <contour>
      <point x="411" y="-12" type="curve" smooth="yes"/>
      <point x="477" y="-12"/>
      <point x="539" y="2"/>
      <point x="539" y="118" type="curve" smooth="yes"/>
      <point x="539" y="376" type="line" smooth="yes"/>
      <point x="539" y="490"/>
      <point x="476" y="506"/>
      <point x="413" y="506" type="curve" smooth="yes"/>
      <point x="350" y="506"/>
      <point x="286" y="492"/>
      <point x="286" y="376" type="curve" smooth="yes"/>
      <point x="286" y="118" type="line" smooth="yes"/>
      <point x="286" y="4"/>
      <point x="349" y="-12"/>
    </contour>
    <contour>
      <point x="68" y="0" type="line"/>
      <point x="84" y="0" type="line"/>
      <point x="84" y="255" type="line"/>
      <point x="295" y="255" type="line"/>
      <point x="295" y="271" type="line"/>
      <point x="84" y="271" type="line"/>
      <point x="84" y="498" type="line"/>
      <point x="68" y="498" type="line"/>
    </contour>
    <contour>
      <point x="412" y="4" type="curve" smooth="yes"/>
      <point x="357" y="4"/>
      <point x="302" y="17"/>
      <point x="302" y="121" type="curve" smooth="yes"/>
      <point x="302" y="373" type="line" smooth="yes"/>
      <point x="302" y="477"/>
      <point x="357" y="490"/>
      <point x="412" y="490" type="curve" smooth="yes"/>
      <point x="466" y="490"/>
      <point x="523" y="477"/>
      <point x="523" y="373" type="curve" smooth="yes"/>
      <point x="523" y="121" type="line" smooth="yes"/>
      <point x="523" y="17"/>
      <point x="468" y="4"/>
    </contour>
  </outline>
</glyph>
<glyph name="ia-cy" format="2">
  <advance width="370"/>
  <unicode hex="044F"/>
  <note>
uni044F
</note>
  <outline>
    <contour>
      <point x="45" y="0" type="line"/>
      <point x="62" y="0" type="line"/>
      <point x="100" y="104" type="line" smooth="yes"/>
      <point x="119" y="155"/>
      <point x="142" y="238"/>
      <point x="191" y="238" type="curve" smooth="yes"/>
      <point x="286" y="238" type="line"/>
      <point x="286" y="0" type="line"/>
      <point x="302" y="0" type="line"/>
      <point x="302" y="495" type="line"/>
      <point x="169" y="495" type="line" smooth="yes"/>
      <point x="112" y="495"/>
      <point x="63" y="470"/>
      <point x="63" y="398" type="curve" smooth="yes"/>
      <point x="63" y="362" type="line" smooth="yes"/>
      <point x="63" y="279"/>
      <point x="97" y="253"/>
      <point x="163" y="244" type="curve"/>
      <point x="127" y="237"/>
      <point x="102" y="160"/>
      <point x="91" y="128" type="curve" smooth="yes"/>
    </contour>
    <contour>
      <point x="198" y="254" type="line" smooth="yes"/>
      <point x="122" y="254"/>
      <point x="79" y="282"/>
      <point x="79" y="360" type="curve" smooth="yes"/>
      <point x="79" y="395" type="line" smooth="yes"/>
      <point x="79" y="452"/>
      <point x="120" y="479"/>
      <point x="165" y="479" type="curve" smooth="yes"/>
      <point x="286" y="479" type="line"/>
      <point x="286" y="254" type="line"/>
    </contour>
  </outline>
</glyph>
<glyph name="dje-cy" format="2">
  <advance width="373"/>
  <unicode hex="0452"/>
  <note>
uni0452
</note>
  <outline>
    <contour>
      <point x="176" y="-101" type="line"/>
      <point x="294" y="-101"/>
      <point x="312" y="-56"/>
      <point x="312" y="45" type="curve" smooth="yes"/>
      <point x="312" y="306" type="line" smooth="yes"/>
      <point x="312" y="367"/>
      <point x="306" y="437"/>
      <point x="193" y="437" type="curve" smooth="yes"/>
      <point x="130" y="437"/>
      <point x="99" y="410"/>
      <point x="84" y="379" type="curve"/>
      <point x="84" y="532" type="line"/>
      <point x="200" y="532" type="line"/>
      <point x="200" y="548" type="line"/>
      <point x="17" y="548" type="line"/>
      <point x="17" y="532" type="line"/>
      <point x="68" y="532" type="line"/>
      <point x="68" y="0" type="line"/>
      <point x="84" y="0" type="line"/>
      <point x="84" y="323" type="line"/>
      <point x="89" y="380"/>
      <point x="120" y="421"/>
      <point x="193" y="421" type="curve" smooth="yes"/>
      <point x="293" y="421"/>
      <point x="296" y="356"/>
      <point x="296" y="297" type="curve" smooth="yes"/>
      <point x="296" y="41" type="line" smooth="yes"/>
      <point x="296" y="-46"/>
      <point x="277" y="-85"/>
      <point x="176" y="-85" type="curve"/>
    </contour>
    <contour>
      <point x="68" y="535" type="line"/>
      <point x="84" y="535" type="line"/>
      <point x="84" y="630" type="line"/>
      <point x="68" y="630" type="line"/>
    </contour>
  </outline>
</glyph>
<glyph name="nje-cy" format="2">
  <advance width="571"/>
  <unicode hex="045A"/>
  <note>
uni045A
</note>
  <outline>
    <contour>
      <point x="288" y="0" type="line"/>
      <point x="412" y="0" type="line" smooth="yes"/>
      <point x="525" y="0"/>
      <point x="531" y="69"/>
      <point x="531" y="131" type="curve" smooth="yes"/>
      <point x="531" y="207" type="line" smooth="yes"/>
      <point x="531" y="268"/>
      <point x="525" y="338"/>
      <point x="412" y="338" type="curve" smooth="yes"/>
      <point x="303" y="338" type="line"/>
      <point x="303" y="495" type="line"/>
      <point x="288" y="495" type="line"/>
    </contour>
    <contour>
      <point x="68" y="0" type="line"/>
      <point x="84" y="0" type="line"/>
      <point x="84" y="495" type="line"/>
      <point x="68" y="495" type="line"/>
    </contour>
    <contour>
      <point x="75" y="256" type="line"/>
      <point x="296" y="256" type="line"/>
      <point x="296" y="272" type="line"/>
      <point x="75" y="272" type="line"/>
    </contour>
    <contour>
      <point x="303" y="15" type="line"/>
      <point x="303" y="323" type="line"/>
      <point x="408" y="323" type="line" smooth="yes"/>
      <point x="511" y="323"/>
      <point x="516" y="263"/>
      <point x="516" y="204" type="curve" smooth="yes"/>
      <point x="516" y="134" type="line" smooth="yes"/>
      <point x="516" y="75"/>
      <point x="511" y="15"/>
      <point x="408" y="15" type="curve" smooth="yes"/>
    </contour>
  </outline>
</glyph>
<glyph name="tshe-cy" format="2">
  <advance width="373"/>
  <unicode hex="045B"/>
  <note>
uni045B
</note>
  <outline>
    <contour>
      <point x="68" y="0" type="line"/>
      <point x="84" y="0" type="line"/>
      <point x="84" y="323" type="line"/>
      <point x="89" y="380"/>
      <point x="120" y="421"/>
      <point x="193" y="421" type="curve" smooth="yes"/>
      <point x="293" y="421"/>
      <point x="296" y="356"/>
      <point x="296" y="297" type="curve" smooth="yes"/>
      <point x="296" y="0" type="line"/>
      <point x="312" y="0" type="line"/>
      <point x="312" y="306" type="line" smooth="yes"/>
      <point x="312" y="367"/>
      <point x="306" y="437"/>
      <point x="193" y="437" type="curve" smooth="yes"/>
      <point x="130" y="437"/>
      <point x="99" y="410"/>
      <point x="84" y="379" type="curve"/>
      <point x="84" y="532" type="line"/>
      <point x="200" y="532" type="line"/>
      <point x="200" y="548" type="line"/>
      <point x="17" y="548" type="line"/>
      <point x="17" y="532" type="line"/>
      <point x="68" y="532" type="line"/>
    </contour>
    <contour>
      <point x="68" y="535" type="line"/>
      <point x="84" y="535" type="line"/>
      <point x="84" y="630" type="line"/>
      <point x="68" y="630" type="line"/>
    </contour>
  </outline>
</glyph>
<glyph name="Yusbig-cy" format="2">
  <advance width="661"/>
  <unicode hex="046A"/>
  <outline>
    <contour>
      <point x="41" y="0" type="line"/>
      <point x="58" y="0" type="line"/>
      <point x="122" y="223" type="line" smooth="yes"/>
      <point x="134" y="265"/>
      <point x="151" y="309"/>
      <point x="218" y="309" type="curve" smooth="yes"/>
      <point x="318" y="309" type="line"/>
      <point x="318" y="0" type="line"/>
      <point x="334" y="0" type="line"/>
      <point x="334" y="309" type="line"/>
      <point x="435" y="309" type="line" smooth="yes"/>
      <point x="502" y="309"/>
      <point x="519" y="265"/>
      <point x="531" y="223" type="curve" smooth="yes"/>
      <point x="595" y="0" type="line"/>
      <point x="612" y="0" type="line"/>
      <point x="547" y="226" type="line" smooth="yes"/>
      <point x="531" y="280"/>
      <point x="512" y="325"/>
      <point x="431" y="325" type="curve" smooth="yes"/>
      <point x="341" y="325" type="line"/>
      <point x="634" y="576" type="line"/>
      <point x="634" y="591" type="line"/>
      <point x="27" y="591" type="line"/>
      <point x="27" y="576" type="line"/>
      <point x="312" y="325" type="line"/>
      <point x="212" y="325" type="line" smooth="yes"/>
      <point x="141" y="325"/>
      <point x="120" y="274"/>
      <point x="106" y="226" type="curve" smooth="yes"/>
    </contour>
    <contour>
      <point x="327" y="332" type="line"/>
      <point x="52" y="575" type="line"/>
      <point x="608" y="575" type="line"/>
    </contour>
  </outline>
</glyph>
<glyph name="Germandbls" format="2">
  <advance width="388"/>
  <unicode hex="1E9E"/>
  <outline>
    <contour>
      <point x="76" y="-59" type="line"/>
      <point x="92" y="-59" type="line"/>
      <point x="92" y="519" type="line" smooth="yes"/>
      <point x="92" y="552"/>
      <point x="88" y="577"/>
      <point x="196" y="577" type="curve" smooth="yes"/>
      <point x="268" y="577"/>
      <point x="301" y="552"/>
      <point x="301" y="491" type="curve" smooth="yes"/>
      <point x="301" y="457" type="line" smooth="yes"/>
      <point x="301" y="385"/>
      <point x="272" y="348"/>
      <point x="210" y="348" type="curve" smooth="yes"/>
      <point x="156" y="348" type="line"/>
      <point x="156" y="332" type="line"/>
      <point x="199" y="332" type="line" smooth="yes"/>
      <point x="259" y="332"/>
      <point x="311" y="312"/>
      <point x="311" y="236" type="curve" smooth="yes"/>
      <point x="311" y="123" type="line" smooth="yes"/>
      <point x="311" y="31"/>
      <point x="272" y="15"/>
      <point x="213" y="15" type="curve" smooth="yes"/>
      <point x="136" y="15" type="line"/>
      <point x="136" y="0" type="line"/>
      <point x="213" y="0" type="line" smooth="yes"/>
      <point x="278" y="0"/>
      <point x="327" y="15"/>
      <point x="327" y="119" type="curve" smooth="yes"/>
      <point x="327" y="244" type="line" smooth="yes"/>
      <point x="327" y="300"/>
      <point x="288" y="334"/>
      <point x="242" y="340" type="curve"/>
      <point x="285" y="344"/>
      <point x="317" y="385"/>
      <point x="317" y="457" type="curve" smooth="yes"/>
      <point x="317" y="498" type="line" smooth="yes"/>
      <point x="317" y="570"/>
      <point x="271" y="593"/>
      <point x="196" y="593" type="curve" smooth="yes"/>
      <point x="89" y="593"/>
      <point x="76" y="573"/>
      <point x="76" y="527" type="curve" smooth="yes"/>
    </contour>
  </outline>
</glyph>
<glyph name="quoteleft" format="2">
  <advance width="132"/>
  <unicode hex="2018"/>
  <note>
quoteleft
</note>
  <outline>
    <contour>
      <point x="64" y="480" type="curve" smooth="yes"/>
      <point x="75" y="480"/>
      <point x="81" y="490"/>
      <point x="81" y="499" type="curve" smooth="yes"/>
      <point x="81" y="519"/>
      <point x="66" y="519"/>
      <point x="66" y="532" type="curve" smooth="yes"/>
      <point x="66" y="550"/>
      <point x="83" y="582"/>
      <point x="91" y="596" type="curve"/>
      <point x="78" y="596" type="line"/>
      <point x="61" y="571"/>
      <point x="43" y="532"/>
      <point x="43" y="505" type="curve" smooth="yes"/>
      <point x="43" y="492"/>
      <point x="49" y="480"/>
    </contour>
  </outline>
</glyph>
<glyph name="quoteright" format="2">
  <advance width="132"/>
  <unicode hex="2019"/>
  <note>
quoteright
</note>
  <outline>
    <contour>
      <point x="41" y="480" type="curve"/>
      <point x="54" y="480" type="line"/>
      <point x="71" y="505"/>
      <point x="89" y="544"/>
      <point x="89" y="571" type="curve" smooth="yes"/>
      <point x="89" y="584"/>
      <point x="83" y="596"/>
      <point x="68" y="596" type="curve" smooth="yes"/>
      <point x="57" y="596"/>
      <point x="51" y="586"/>
      <point x="51" y="577" type="curve" smooth="yes"/>
      <point x="51" y="557"/>
      <point x="66" y="557"/>
      <point x="66" y="544" type="curve" smooth="yes"/>
      <point x="66" y="526"/>
      <point x="49" y="494"/>
    </contour>
  </outline>
</glyph>
<glyph name="dagger" format="2">
  <advance width="353"/>
  <unicode hex="2020"/>
  <note>
dagger
</note>
  <outline>
    <contour>
      <point x="165" y="-79" type="line"/>
      <point x="183" y="-79" type="line"/>
      <point x="183" y="396" type="line"/>
      <point x="303" y="396" type="line"/>
      <point x="303" y="412" type="line"/>
      <point x="183" y="412" type="line"/>
      <point x="183" y="630" type="line"/>
      <point x="165" y="630" type="line"/>
      <point x="165" y="412" type="line"/>
      <point x="50" y="412" type="line"/>
      <point x="50" y="396" type="line"/>
      <point x="165" y="396" type="line"/>
    </contour>
  </outline>
</glyph>
<glyph name="daggerdbl" format="2">
  <advance width="356"/>
  <unicode hex="2021"/>
  <note>
daggerdbl
</note>
  <outline>
    <contour>
      <point x="170" y="-124" type="line"/>
      <point x="186" y="-124" type="line"/>
      <point x="186" y="182" type="line"/>
      <point x="306" y="182" type="line"/>
      <point x="306" y="198" type="line"/>
      <point x="186" y="198" type="line"/>
      <point x="186" y="351" type="line"/>
      <point x="306" y="351" type="line"/>
      <point x="306" y="367" type="line"/>
      <point x="186" y="367" type="line"/>
      <point x="186" y="585" type="line"/>
      <point x="170" y="585" type="line"/>
      <point x="170" y="367" type="line"/>
      <point x="50" y="367" type="line"/>
      <point x="50" y="351" type="line"/>
      <point x="170" y="351" type="line"/>
      <point x="170" y="198" type="line"/>
      <point x="50" y="198" type="line"/>
      <point x="50" y="182" type="line"/>
      <point x="170" y="182" type="line"/>
    </contour>
  </outline>
</glyph>
<glyph name="bullet" format="2">
  <advance width="224"/>
  <unicode hex="2022"/>
  <note>
bullet
</note>
  <outline>
    <contour>
      <point x="111" y="223" type="curve" smooth="yes"/>
      <point x="147" y="223"/>
      <point x="174" y="250"/>
      <point x="174" y="285" type="curve" smooth="yes"/>
      <point x="174" y="320"/>
      <point x="146" y="347"/>
      <point x="113" y="347" type="curve" smooth="yes"/>
      <point x="77" y="347"/>
      <point x="50" y="320"/>
      <point x="50" y="285" type="curve" smooth="yes"/>
      <point x="51" y="249"/>
      <point x="78" y="223"/>
    </contour>
  </outline>
</glyph>
<glyph name="guilsinglright" format="2">
  <advance width="234"/>
  <unicode hex="203A"/>
  <note>
guilsinglright
</note>
  <outline>
    <contour>
      <point x="52" y="115" type="line"/>
      <point x="66" y="115" type="line"/>
      <point x="184" y="284" type="line"/>
      <point x="54" y="468" type="line"/>
      <point x="40" y="468" type="line"/>
      <point x="166" y="284" type="line"/>
    </contour>
  </outline>
</glyph>
<glyph name="commercialMinusSign" format="2">
  <advance width="418"/>
  <unicode hex="2052"/>
  <outline>
    <contour>
      <point x="53" y="0" type="line"/>
      <point x="70" y="0" type="line"/>
      <point x="391" y="585" type="line"/>
      <point x="372" y="585" type="line"/>
    </contour>
    <contour>
      <point x="299" y="128" type="curve" smooth="yes"/>
      <point x="320" y="128"/>
      <point x="336" y="143"/>
      <point x="336" y="164" type="curve" smooth="yes"/>
      <point x="336" y="184"/>
      <point x="320" y="200"/>
      <point x="301" y="200" type="curve" smooth="yes"/>
      <point x="279" y="200"/>
      <point x="264" y="184"/>
      <point x="264" y="164" type="curve" smooth="yes"/>
      <point x="264" y="143"/>
      <point x="280" y="128"/>
    </contour>
    <contour>
      <point x="115" y="332" type="curve" smooth="yes"/>
      <point x="136" y="332"/>
      <point x="152" y="347"/>
      <point x="152" y="368" type="curve" smooth="yes"/>
      <point x="152" y="388"/>
      <point x="136" y="404"/>
      <point x="116" y="404" type="curve" smooth="yes"/>
      <point x="95" y="404"/>
      <point x="80" y="388"/>
      <point x="80" y="368" type="curve" smooth="yes"/>
      <point x="80" y="347"/>
      <point x="96" y="332"/>
    </contour>
  </outline>
</glyph>
<glyph name="franc" format="2">
  <advance width="358"/>
  <unicode hex="20A3"/>
  <note>
franc
</note>
  <outline>
    <contour>
      <point x="95" y="0" type="line"/>
      <point x="111" y="0" type="line"/>
      <point x="111" y="162" type="line"/>
      <point x="214" y="162" type="line"/>
      <point x="214" y="178" type="line"/>
      <point x="111" y="178" type="line"/>
      <point x="111" y="303" type="line"/>
      <point x="289" y="303" type="line"/>
      <point x="289" y="320" type="line"/>
      <point x="111" y="320" type="line"/>
      <point x="111" y="575" type="line"/>
      <point x="340" y="575" type="line"/>
      <point x="340" y="591" type="line"/>
      <point x="95" y="591" type="line"/>
      <point x="95" y="178" type="line"/>
      <point x="50" y="178" type="line"/>
      <point x="50" y="162" type="line"/>
      <point x="95" y="162" type="line"/>
    </contour>
  </outline>
</glyph>
<glyph name="lira" format="2">
  <advance width="397"/>
  <unicode hex="20A4"/>
  <note>
lira
</note>
  <outline>
    <contour>
      <point x="269" y="-2" type="curve" smooth="yes"/>
      <point x="334" y="-2"/>
      <point x="351" y="35"/>
      <point x="351" y="91" type="curve" smooth="yes"/>
      <point x="351" y="136" type="line"/>
      <point x="335" y="136" type="line"/>
      <point x="335" y="81" type="line" smooth="yes"/>
      <point x="335" y="32"/>
      <point x="313" y="14"/>
      <point x="271" y="14" type="curve" smooth="yes"/>
      <point x="248" y="14"/>
      <point x="226" y="18"/>
      <point x="207" y="21" type="curve" smooth="yes"/>
      <point x="176" y="25"/>
      <point x="152" y="29"/>
      <point x="125" y="29" type="curve" smooth="yes"/>
      <point x="110" y="29"/>
      <point x="92" y="28"/>
      <point x="84" y="26" type="curve"/>
      <point x="117" y="73"/>
      <point x="141" y="124"/>
      <point x="152" y="175" type="curve"/>
      <point x="238" y="175" type="line"/>
      <point x="238" y="191" type="line"/>
      <point x="155" y="191" type="line"/>
      <point x="158" y="207"/>
      <point x="159" y="224"/>
      <point x="159" y="240" type="curve" smooth="yes"/>
      <point x="159" y="252"/>
      <point x="159" y="263"/>
      <point x="157" y="275" type="curve"/>
      <point x="238" y="275" type="line"/>
      <point x="238" y="291" type="line"/>
      <point x="155" y="291" type="line"/>
      <point x="152" y="307"/>
      <point x="147" y="323"/>
      <point x="140" y="338" type="curve" smooth="yes"/>
      <point x="129" y="364"/>
      <point x="95" y="428"/>
      <point x="95" y="477" type="curve" smooth="yes"/>
      <point x="95" y="547"/>
      <point x="144" y="579"/>
      <point x="217" y="579" type="curve" smooth="yes"/>
      <point x="278" y="579"/>
      <point x="336" y="552"/>
      <point x="336" y="477" type="curve" smooth="yes"/>
      <point x="336" y="450" type="line"/>
      <point x="352" y="450" type="line"/>
      <point x="352" y="482" type="line" smooth="yes"/>
      <point x="352" y="553"/>
      <point x="303" y="595"/>
      <point x="220" y="595" type="curve" smooth="yes"/>
      <point x="127" y="595"/>
      <point x="79" y="556"/>
      <point x="79" y="478" type="curve" smooth="yes"/>
      <point x="79" y="398"/>
      <point x="122" y="359"/>
      <point x="138" y="291" type="curve"/>
      <point x="61" y="291" type="line"/>
      <point x="61" y="275" type="line"/>
      <point x="141" y="275" type="line"/>
      <point x="142" y="265"/>
      <point x="143" y="254"/>
      <point x="143" y="243" type="curve" smooth="yes"/>
      <point x="143" y="226"/>
      <point x="141" y="208"/>
      <point x="138" y="191" type="curve"/>
      <point x="61" y="191" type="line"/>
      <point x="61" y="175" type="line"/>
      <point x="135" y="175" type="line"/>
      <point x="119" y="107"/>
      <point x="82" y="43"/>
      <point x="50" y="14" type="curve"/>
      <point x="50" y="3" type="line"/>
      <point x="69" y="10"/>
      <point x="93" y="13"/>
      <point x="120" y="13" type="curve" smooth="yes"/>
      <point x="151" y="13"/>
      <point x="180" y="9"/>
      <point x="208" y="5" type="curve" smooth="yes"/>
      <point x="227" y="2"/>
      <point x="249" y="-2"/>
    </contour>
  </outline>
</glyph>
<glyph name="naira" format="2">
  <advance width="445"/>
  <unicode hex="20A6"/>
  <outline>
    <contour>
      <point x="80" y="0" type="line"/>
      <point x="96" y="0" type="line"/>
      <point x="96" y="234" type="line"/>
      <point x="240" y="234" type="line"/>
      <point x="341" y="0" type="line"/>
      <point x="362" y="0" type="line"/>
      <point x="362" y="234" type="line"/>
      <point x="405" y="234" type="line"/>
      <point x="405" y="250" type="line"/>
      <point x="362" y="250" type="line"/>
      <point x="362" y="354" type="line"/>
      <point x="405" y="354" type="line"/>
      <point x="405" y="370" type="line"/>
      <point x="362" y="370" type="line"/>
      <point x="362" y="591" type="line"/>
      <point x="346" y="591" type="line"/>
      <point x="346" y="370" type="line"/>
      <point x="198" y="370" type="line"/>
      <point x="102" y="591" type="line"/>
      <point x="80" y="591" type="line"/>
      <point x="80" y="370" type="line"/>
      <point x="40" y="370" type="line"/>
      <point x="40" y="354" type="line"/>
      <point x="80" y="354" type="line"/>
      <point x="80" y="250" type="line"/>
      <point x="40" y="250" type="line"/>
      <point x="40" y="234" type="line"/>
      <point x="80" y="234" type="line"/>
    </contour>
    <contour>
      <point x="346" y="29" type="line"/>
      <point x="257" y="234" type="line"/>
      <point x="346" y="234" type="line"/>
    </contour>
    <contour>
      <point x="96" y="250" type="line"/>
      <point x="96" y="354" type="line"/>
      <point x="187" y="354" type="line"/>
      <point x="233" y="250" type="line"/>
    </contour>
    <contour>
      <point x="250" y="250" type="line"/>
      <point x="205" y="354" type="line"/>
      <point x="346" y="354" type="line"/>
      <point x="346" y="250" type="line"/>
    </contour>
    <contour>
      <point x="96" y="370" type="line"/>
      <point x="96" y="565" type="line"/>
      <point x="181" y="370" type="line"/>
    </contour>
  </outline>
</glyph>
<glyph name="won" format="2">
  <advance width="571"/>
  <unicode hex="20A9"/>
  <outline>
    <contour>
      <point x="157" y="0" type="line"/>
      <point x="173" y="0" type="line"/>
      <point x="290" y="553" type="line"/>
      <point x="403" y="0" type="line"/>
      <point x="422" y="0" type="line"/>
      <point x="524" y="591" type="line"/>
      <point x="508" y="591" type="line"/>
      <point x="412" y="35" type="line"/>
      <point x="298" y="591" type="line"/>
      <point x="282" y="591" type="line"/>
      <point x="166" y="45" type="line"/>
      <point x="73" y="591" type="line"/>
      <point x="57" y="591" type="line"/>
    </contour>
    <contour>
      <point x="45" y="254" type="line"/>
      <point x="536" y="254" type="line"/>
      <point x="536" y="270" type="line"/>
      <point x="45" y="270" type="line"/>
    </contour>
    <contour>
      <point x="45" y="374" type="line"/>
      <point x="536" y="374" type="line"/>
      <point x="536" y="390" type="line"/>
      <point x="45" y="390" type="line"/>
    </contour>
  </outline>
</glyph>
<glyph name="kip" format="2">
  <advance width="353"/>
  <unicode hex="20AD"/>
  <outline>
    <contour>
      <point x="313" y="0" type="line"/>
      <point x="332" y="0" type="line"/>
      <point x="147" y="306" type="line"/>
      <point x="328" y="591" type="line"/>
      <point x="309" y="591" type="line"/>
      <point x="129" y="306" type="line"/>
    </contour>
    <contour>
      <point x="85" y="0" type="line"/>
      <point x="101" y="0" type="line"/>
      <point x="101" y="591" type="line"/>
      <point x="85" y="591" type="line"/>
    </contour>
    <contour>
      <point x="40" y="294" type="line"/>
      <point x="299" y="294" type="line"/>
      <point x="299" y="310" type="line"/>
      <point x="40" y="310" type="line"/>
    </contour>
  </outline>
</glyph>
<glyph name="manat" format="2">
  <advance width="392"/>
  <unicode hex="20BC"/>
  <outline>
    <contour>
      <point x="55" y="0" type="line"/>
      <point x="71" y="0" type="line"/>
      <point x="105" y="485" type="line" smooth="yes"/>
      <point x="111" y="575"/>
      <point x="151" y="592"/>
      <point x="196" y="592" type="curve" smooth="yes"/>
      <point x="241" y="592"/>
      <point x="281" y="575"/>
      <point x="287" y="485" type="curve" smooth="yes"/>
      <point x="321" y="0" type="line"/>
      <point x="337" y="0" type="line"/>
      <point x="304" y="479" type="line" smooth="yes"/>
      <point x="297" y="586"/>
      <point x="251" y="603"/>
      <point x="196" y="603" type="curve" smooth="yes"/>
      <point x="141" y="603"/>
      <point x="95" y="586"/>
      <point x="88" y="479" type="curve" smooth="yes"/>
    </contour>
    <contour>
      <point x="188" y="0" type="line"/>
      <point x="204" y="0" type="line"/>
      <point x="204" y="631" type="line"/>
      <point x="188" y="631" type="line"/>
    </contour>
  </outline>
</glyph>
<glyph name="trademark" format="2">
  <advance width="492"/>
  <unicode hex="2122"/>
  <note>
trademark
</note>
  <guideline x="206" y="279" angle="0"/>
  <outline>
    <contour>
      <point x="189" y="279" type="line"/>
      <point x="205" y="279" type="line"/>
      <point x="205" y="543" type="line"/>
      <point x="295" y="279" type="line"/>
      <point x="311" y="279" type="line"/>
      <point x="400" y="543" type="line"/>
      <point x="400" y="279" type="line"/>
      <point x="416" y="279" type="line"/>
      <point x="416" y="591" type="line"/>
      <point x="400" y="591" type="line"/>
      <point x="304" y="302" type="line"/>
      <point x="205" y="591" type="line"/>
      <point x="189" y="591" type="line"/>
    </contour>
    <contour>
      <point x="71" y="279" type="line"/>
      <point x="87" y="279" type="line"/>
      <point x="87" y="577" type="line"/>
      <point x="147" y="577" type="line"/>
      <point x="147" y="591" type="line"/>
      <point x="11" y="591" type="line"/>
      <point x="11" y="577" type="line"/>
      <point x="71" y="577" type="line"/>
    </contour>
  </outline>
</glyph>
<glyph name="leftArrow" format="2">
  <advance width="797"/>
  <unicode hex="2190"/>
  <outline>
    <contour>
      <point x="253" y="89" type="line"/>
      <point x="264" y="101" type="line"/>
      <point x="83" y="284" type="line"/>
      <point x="747" y="284" type="line"/>
      <point x="747" y="300" type="line"/>
      <point x="83" y="300" type="line"/>
      <point x="269" y="482" type="line"/>
      <point x="257" y="494" type="line"/>
      <point x="50" y="291" type="line"/>
    </contour>
  </outline>
</glyph>
<glyph name="rightArrow" format="2">
  <advance width="797"/>
  <unicode hex="2192"/>
  <outline>
    <contour>
      <point x="544" y="89" type="line"/>
      <point x="747" y="291" type="line"/>
      <point x="540" y="494" type="line"/>
      <point x="528" y="482" type="line"/>
      <point x="714" y="300" type="line"/>
      <point x="50" y="300" type="line"/>
      <point x="50" y="284" type="line"/>
      <point x="714" y="284" type="line"/>
      <point x="533" y="101" type="line"/>
    </contour>
  </outline>
</glyph>
<glyph name="downArrow" format="2">
  <advance width="505"/>
  <unicode hex="2193"/>
  <outline>
    <contour>
      <point x="252" y="-9" type="line"/>
      <point x="455" y="193" type="line"/>
      <point x="443" y="204" type="line"/>
      <point x="260" y="23" type="line"/>
      <point x="260" y="687" type="line"/>
      <point x="244" y="687" type="line"/>
      <point x="244" y="23" type="line"/>
      <point x="62" y="209" type="line"/>
      <point x="50" y="197" type="line"/>
    </contour>
  </outline>
</glyph>
<glyph name="leftRightArrow" format="2">
  <advance width="944"/>
  <unicode hex="2194"/>
  <outline>
    <contour>
      <point x="252" y="51" type="line"/>
      <point x="265" y="63" type="line"/>
      <point x="81" y="246" type="line"/>
      <point x="863" y="246" type="line"/>
      <point x="679" y="63" type="line"/>
      <point x="692" y="51" type="line"/>
      <point x="894" y="254" type="line"/>
      <point x="687" y="457" type="line"/>
      <point x="676" y="446" type="line"/>
      <point x="863" y="262" type="line"/>
      <point x="81" y="262" type="line"/>
      <point x="268" y="446" type="line"/>
      <point x="257" y="457" type="line"/>
      <point x="50" y="254" type="line"/>
    </contour>
  </outline>
</glyph>
<glyph name="upDownArrow" format="2">
  <advance width="506"/>
  <unicode hex="2195"/>
  <outline>
    <contour>
      <point x="253" y="-134" type="line"/>
      <point x="456" y="68" type="line"/>
      <point x="444" y="81" type="line"/>
      <point x="261" y="-103" type="line"/>
      <point x="261" y="679" type="line"/>
      <point x="444" y="495" type="line"/>
      <point x="456" y="508" type="line"/>
      <point x="253" y="710" type="line"/>
      <point x="50" y="503" type="line"/>
      <point x="61" y="492" type="line"/>
      <point x="245" y="679" type="line"/>
      <point x="245" y="-103" type="line"/>
      <point x="61" y="84" type="line"/>
      <point x="50" y="73" type="line"/>
    </contour>
  </outline>
</glyph>
<glyph name="northEastArrow" format="2">
  <advance width="607"/>
  <unicode hex="2197"/>
  <outline>
    <contour>
      <point x="61" y="85" type="line"/>
      <point x="540" y="564" type="line"/>
      <point x="540" y="305" type="line"/>
      <point x="557" y="305" type="line"/>
      <point x="557" y="592" type="line"/>
      <point x="267" y="589" type="line"/>
      <point x="267" y="573" type="line"/>
      <point x="529" y="575" type="line"/>
      <point x="50" y="97" type="line"/>
    </contour>
  </outline>
</glyph>
<glyph name="southWestArrow" format="2">
  <advance width="598"/>
  <unicode hex="2199"/>
  <outline>
    <contour>
      <point x="50" y="0" type="line"/>
      <point x="336" y="0" type="line"/>
      <point x="336" y="16" type="line"/>
      <point x="78" y="17" type="line"/>
      <point x="548" y="487" type="line"/>
      <point x="537" y="498" type="line"/>
      <point x="67" y="29" type="line"/>
      <point x="70" y="289" type="line"/>
      <point x="53" y="289" type="line"/>
    </contour>
  </outline>
</glyph>
<glyph name="partialdiff" format="2">
  <advance width="357"/>
  <unicode hex="2202"/>
  <note>
partialdiff
</note>
  <outline>
    <contour>
      <point x="178" y="-7" type="curve" smooth="yes"/>
      <point x="276" y="-7"/>
      <point x="298" y="43"/>
      <point x="298" y="123" type="curve" smooth="yes"/>
      <point x="298" y="443" type="line" smooth="yes"/>
      <point x="298" y="569"/>
      <point x="298" y="663"/>
      <point x="187" y="663" type="curve" smooth="yes"/>
      <point x="152" y="663"/>
      <point x="112" y="650"/>
      <point x="102" y="646" type="curve"/>
      <point x="102" y="630" type="line"/>
      <point x="110" y="633"/>
      <point x="155" y="647"/>
      <point x="186" y="647" type="curve" smooth="yes"/>
      <point x="277" y="647"/>
      <point x="280" y="573"/>
      <point x="281" y="463" type="curve"/>
      <point x="267" y="481"/>
      <point x="233" y="503"/>
      <point x="178" y="503" type="curve" smooth="yes"/>
      <point x="65" y="503"/>
      <point x="59" y="433"/>
      <point x="59" y="372" type="curve" smooth="yes"/>
      <point x="59" y="124" type="line" smooth="yes"/>
      <point x="59" y="62"/>
      <point x="65" y="-7"/>
    </contour>
    <contour>
      <point x="178" y="9" type="curve" smooth="yes"/>
      <point x="80" y="9"/>
      <point x="75" y="68"/>
      <point x="75" y="127" type="curve" smooth="yes"/>
      <point x="75" y="369" type="line" smooth="yes"/>
      <point x="75" y="428"/>
      <point x="80" y="487"/>
      <point x="178" y="487" type="curve" smooth="yes"/>
      <point x="248" y="487"/>
      <point x="276" y="448"/>
      <point x="282" y="431" type="curve"/>
      <point x="282" y="127" type="line" smooth="yes"/>
      <point x="282" y="71"/>
      <point x="282" y="9"/>
    </contour>
  </outline>
</glyph>
<glyph name="summation" format="2">
  <advance width="337"/>
  <unicode hex="2211"/>
  <note>
summation
</note>
  <outline>
    <contour>
      <point x="50" y="-85" type="line"/>
      <point x="287" y="-85" type="line"/>
      <point x="287" y="-69" type="line"/>
      <point x="73" y="-69" type="line"/>
      <point x="258" y="255" type="line"/>
      <point x="82" y="569" type="line"/>
      <point x="287" y="569" type="line"/>
      <point x="287" y="585" type="line"/>
      <point x="60" y="585" type="line"/>
      <point x="60" y="577" type="line"/>
      <point x="239" y="255" type="line"/>
      <point x="50" y="-78" type="line"/>
    </contour>
  </outline>
</glyph>
<glyph name="minus" format="2">
  <advance width="394"/>
  <unicode hex="2212"/>
  <note>
minus
</note>
  <outline>
    <contour>
      <point x="50" y="244" type="line"/>
      <point x="344" y="244" type="line"/>
      <point x="344" y="260" type="line"/>
      <point x="50" y="260" type="line"/>
    </contour>
  </outline>
</glyph>
<glyph name="divisionslash" format="2">
  <advance width="338"/>
  <unicode hex="2215"/>
  <outline>
    <contour>
      <point x="0" y="0" type="line"/>
      <point x="17" y="0" type="line"/>
      <point x="338" y="585" type="line"/>
      <point x="319" y="585" type="line"/>
    </contour>
  </outline>
</glyph>
<glyph name="integral" format="2">
  <advance width="216"/>
  <unicode hex="222B"/>
  <note>
integral
</note>
  <outline>
    <contour>
      <point x="41" y="-286" type="curve" smooth="yes"/>
      <point x="93" y="-286"/>
      <point x="116" y="-253"/>
      <point x="116" y="-197" type="curve" smooth="yes"/>
      <point x="116" y="552" type="line" smooth="yes"/>
      <point x="116" y="587"/>
      <point x="122" y="621"/>
      <point x="169" y="621" type="curve" smooth="yes"/>
      <point x="186" y="621"/>
      <point x="201" y="620"/>
      <point x="212" y="619" type="curve" smooth="yes"/>
      <point x="229" y="617" type="line"/>
      <point x="229" y="632" type="line"/>
      <point x="216" y="635"/>
      <point x="195" y="636"/>
      <point x="170" y="636" type="curve" smooth="yes"/>
      <point x="118" y="636"/>
      <point x="100" y="603"/>
      <point x="100" y="547" type="curve" smooth="yes"/>
      <point x="100" y="-202" type="line" smooth="yes"/>
      <point x="100" y="-237"/>
      <point x="89" y="-270"/>
      <point x="42" y="-270" type="curve" smooth="yes"/>
      <point x="22" y="-270"/>
      <point x="8" y="-269"/>
      <point x="-18" y="-266" type="curve"/>
      <point x="-18" y="-282" type="line"/>
      <point x="-5" y="-283"/>
      <point x="16" y="-286"/>
    </contour>
  </outline>
</glyph>
<glyph name="approxequal" format="2">
  <advance width="451"/>
  <unicode hex="2248"/>
  <note>
approxequal
</note>
  <outline>
    <contour>
      <point x="309" y="329" type="curve" smooth="yes"/>
      <point x="362" y="329"/>
      <point x="396" y="352"/>
      <point x="401" y="391" type="curve"/>
      <point x="385" y="391" type="line"/>
      <point x="380" y="361"/>
      <point x="354" y="345"/>
      <point x="309" y="345" type="curve" smooth="yes"/>
      <point x="276" y="345"/>
      <point x="253" y="356"/>
      <point x="229" y="367" type="curve" smooth="yes"/>
      <point x="204" y="379"/>
      <point x="177" y="391"/>
      <point x="138" y="391" type="curve" smooth="yes"/>
      <point x="89" y="391"/>
      <point x="57" y="369"/>
      <point x="50" y="330" type="curve"/>
      <point x="67" y="330" type="line"/>
      <point x="73" y="359"/>
      <point x="98" y="375"/>
      <point x="138" y="375" type="curve" smooth="yes"/>
      <point x="173" y="375"/>
      <point x="197" y="364"/>
      <point x="222" y="352" type="curve" smooth="yes"/>
      <point x="247" y="341"/>
      <point x="273" y="329"/>
    </contour>
    <contour>
      <point x="309" y="127" type="curve" smooth="yes"/>
      <point x="362" y="127"/>
      <point x="396" y="150"/>
      <point x="401" y="189" type="curve"/>
      <point x="385" y="189" type="line"/>
      <point x="380" y="159"/>
      <point x="354" y="143"/>
      <point x="309" y="143" type="curve" smooth="yes"/>
      <point x="276" y="143"/>
      <point x="253" y="154"/>
      <point x="229" y="165" type="curve" smooth="yes"/>
      <point x="204" y="177"/>
      <point x="177" y="189"/>
      <point x="138" y="189" type="curve" smooth="yes"/>
      <point x="89" y="189"/>
      <point x="57" y="167"/>
      <point x="50" y="128" type="curve"/>
      <point x="67" y="128" type="line"/>
      <point x="73" y="157"/>
      <point x="98" y="173"/>
      <point x="138" y="173" type="curve" smooth="yes"/>
      <point x="173" y="173"/>
      <point x="197" y="162"/>
      <point x="222" y="150" type="curve" smooth="yes"/>
      <point x="247" y="139"/>
      <point x="273" y="127"/>
    </contour>
  </outline>
</glyph>
<glyph name="greaterequal" format="2">
  <advance width="338"/>
  <unicode hex="2265"/>
  <note>
greaterequal
</note>
  <outline>
    <contour>
      <point x="50" y="163" type="line"/>
      <point x="288" y="320" type="line"/>
      <point x="288" y="333" type="line"/>
      <point x="50" y="491" type="line"/>
      <point x="50" y="470" type="line"/>
      <point x="270" y="326" type="line"/>
      <point x="50" y="184" type="line"/>
    </contour>
    <contour>
      <point x="50" y="0" type="line"/>
      <point x="288" y="0" type="line"/>
      <point x="288" y="16" type="line"/>
      <point x="50" y="16" type="line"/>
    </contour>
  </outline>
</glyph>
<glyph name="lozenge" format="2">
  <advance width="459"/>
  <unicode hex="25CA"/>
  <note>
lozenge
</note>
  <outline>
    <contour>
      <point x="219" y="-36" type="line"/>
      <point x="240" y="-36" type="line"/>
      <point x="409" y="292" type="line"/>
      <point x="240" y="618" type="line"/>
      <point x="219" y="618" type="line"/>
      <point x="50" y="292" type="line"/>
    </contour>
    <contour>
      <point x="230" y="-23" type="line"/>
      <point x="67" y="293" type="line"/>
      <point x="229" y="604" type="line"/>
      <point x="391" y="292" type="line"/>
    </contour>
  </outline>
</glyph>
<glyph name="apple" format="2">
  <advance width="626"/>
  <unicode hex="F8FF"/>
  <note>
apple
</note>
  <outline>
    <contour>
      <point x="208" y="-7" type="curve" smooth="yes"/>
      <point x="237" y="-7"/>
      <point x="252" y="-1"/>
      <point x="264" y="7" type="curve"/>
      <point x="279" y="14"/>
      <point x="290" y="23"/>
      <point x="319" y="23" type="curve" smooth="yes"/>
      <point x="343" y="23"/>
      <point x="356" y="17"/>
      <point x="371" y="8" type="curve" smooth="yes"/>
      <point x="386" y="0"/>
      <point x="399" y="-7"/>
      <point x="430" y="-7" type="curve" smooth="yes"/>
      <point x="490" y="-7"/>
      <point x="545" y="82"/>
      <point x="566" y="149" type="curve"/>
      <point x="513" y="176"/>
      <point x="478" y="233"/>
      <point x="478" y="292" type="curve" smooth="yes"/>
      <point x="478" y="356"/>
      <point x="517" y="401"/>
      <point x="548" y="422" type="curve"/>
      <point x="515" y="469"/>
      <point x="470" y="477"/>
      <point x="439" y="477" type="curve"/>
      <point x="415" y="473" type="line"/>
      <point x="352" y="451"/>
      <point x="343" y="445"/>
      <point x="313" y="445" type="curve" smooth="yes"/>
      <point x="282" y="445"/>
      <point x="240" y="475"/>
      <point x="197" y="475" type="curve" smooth="yes"/>
      <point x="159" y="475"/>
      <point x="50" y="436"/>
      <point x="50" y="284" type="curve" smooth="yes"/>
      <point x="50" y="172"/>
      <point x="98" y="73"/>
      <point x="169" y="9" type="curve" smooth="yes"/>
      <point x="180" y="-2"/>
      <point x="193" y="-7"/>
    </contour>
    <contour>
      <point x="330" y="486" type="curve"/>
      <point x="395" y="486"/>
      <point x="437" y="549"/>
      <point x="442" y="593" type="curve"/>
      <point x="442" y="603" type="line" smooth="yes"/>
      <point x="442" y="614"/>
      <point x="440" y="628"/>
      <point x="435" y="628" type="curve" smooth="yes"/>
      <point x="385" y="628"/>
      <point x="330" y="555"/>
    </contour>
  </outline>
</glyph>
<glyph name="fi" format="2">
  <advance width="322"/>
  <unicode hex="FB01"/>
  <note>
fi
</note>
  <anchor x="161" y="0" name="caret_1"/>
  <outline>
    <contour>
      <point x="70" y="0" type="line"/>
      <point x="86" y="0" type="line"/>
      <point x="86" y="458" type="line"/>
      <point x="238" y="458" type="line"/>
      <point x="238" y="0" type="line"/>
      <point x="254" y="0" type="line"/>
      <point x="254" y="474" type="line"/>
      <point x="86" y="474" type="line"/>
      <point x="86" y="548" type="line" smooth="yes"/>
      <point x="86" y="596"/>
      <point x="111" y="621"/>
      <point x="176" y="621" type="curve" smooth="yes"/>
      <point x="199" y="621"/>
      <point x="235" y="617"/>
      <point x="260" y="606" type="curve"/>
      <point x="260" y="623" type="line"/>
      <point x="238" y="630"/>
      <point x="207" y="636"/>
      <point x="175" y="636" type="curve" smooth="yes"/>
      <point x="104" y="636"/>
      <point x="70" y="607"/>
      <point x="70" y="543" type="curve" smooth="yes"/>
      <point x="70" y="474" type="line"/>
      <point x="39" y="474" type="line"/>
      <point x="39" y="458" type="line"/>
      <point x="70" y="458" type="line"/>
    </contour>
  </outline>
</glyph>
<glyph name="fl" format="2">
  <advance width="322"/>
  <unicode hex="FB02"/>
  <note>
fl
</note>
  <anchor x="161" y="0" name="caret_1"/>
  <outline>
    <contour>
      <point x="70" y="0" type="line"/>
      <point x="86" y="0" type="line"/>
      <point x="86" y="458" type="line"/>
      <point x="181" y="458" type="line"/>
      <point x="181" y="474" type="line"/>
      <point x="86" y="474" type="line"/>
      <point x="86" y="548" type="line" smooth="yes"/>
      <point x="86" y="596"/>
      <point x="111" y="621"/>
      <point x="176" y="621" type="curve" smooth="yes"/>
      <point x="193" y="621"/>
      <point x="217" y="619"/>
      <point x="238" y="613" type="curve"/>
      <point x="238" y="0" type="line"/>
      <point x="254" y="0" type="line"/>
      <point x="254" y="625" type="line"/>
      <point x="232" y="631"/>
      <point x="204" y="636"/>
      <point x="175" y="636" type="curve" smooth="yes"/>
      <point x="104" y="636"/>
      <point x="70" y="607"/>
      <point x="70" y="543" type="curve" smooth="yes"/>
      <point x="70" y="474" type="line"/>
      <point x="39" y="474" type="line"/>
      <point x="39" y="458" type="line"/>
      <point x="70" y="458" type="line"/>
    </contour>
  </outline>
</glyph>
<glyph name="acutecomb.case" format="2">
  <note>
acutecomb
</note>
  <anchor x="217" y="591" name="_top"/>
  <anchor x="170" y="532" name="_topviet"/>
  <anchor x="249" y="675" name="top"/>
  <outline>
    <contour>
      <point x="196" y="633" type="line"/>
      <point x="211" y="633" type="line"/>
      <point x="302" y="708" type="line"/>
      <point x="279" y="708" type="line"/>
    </contour>
  </outline>
</glyph>
<glyph name="ampersand.ss01" format="2">
  <advance width="489"/>
  <note>
ampersand.001
</note>
  <outline>
    <contour>
      <point x="202" y="-8" type="curve" smooth="yes"/>
      <point x="264" y="-8"/>
      <point x="308" y="17"/>
      <point x="329" y="63" type="curve"/>
      <point x="335" y="21"/>
      <point x="357" y="0"/>
      <point x="400" y="0" type="curve" smooth="yes"/>
      <point x="425" y="0"/>
      <point x="450" y="3"/>
      <point x="459" y="4" type="curve"/>
      <point x="459" y="20" type="line"/>
      <point x="435" y="17"/>
      <point x="418" y="15"/>
      <point x="399" y="15" type="curve" smooth="yes"/>
      <point x="354" y="15"/>
      <point x="343" y="51"/>
      <point x="343" y="88" type="curve" smooth="yes"/>
      <point x="343" y="301" type="line"/>
      <point x="459" y="301" type="line"/>
      <point x="459" y="317" type="line"/>
      <point x="343" y="317" type="line"/>
      <point x="343" y="414" type="line"/>
      <point x="330" y="414" type="line"/>
      <point x="327" y="317" type="line"/>
      <point x="202" y="317" type="line" smooth="yes"/>
      <point x="130" y="317"/>
      <point x="84" y="370"/>
      <point x="84" y="440" type="curve" smooth="yes"/>
      <point x="84" y="459" type="line" smooth="yes"/>
      <point x="84" y="534"/>
      <point x="118" y="579"/>
      <point x="202" y="579" type="curve" smooth="yes"/>
      <point x="248" y="579"/>
      <point x="294" y="570"/>
      <point x="326" y="549" type="curve"/>
      <point x="326" y="567" type="line"/>
      <point x="291" y="586"/>
      <point x="246" y="595"/>
      <point x="202" y="595" type="curve" smooth="yes"/>
      <point x="113" y="595"/>
      <point x="67" y="543"/>
      <point x="67" y="460" type="curve" smooth="yes"/>
      <point x="67" y="442" type="line" smooth="yes"/>
      <point x="67" y="373"/>
      <point x="108" y="321"/>
      <point x="172" y="309" type="curve"/>
      <point x="92" y="298"/>
      <point x="61" y="232"/>
      <point x="61" y="163" type="curve" smooth="yes"/>
      <point x="61" y="137" type="line" smooth="yes"/>
      <point x="61" y="41"/>
      <point x="115" y="-8"/>
    </contour>
    <contour>
      <point x="202" y="7" type="curve" smooth="yes"/>
      <point x="117" y="9"/>
      <point x="77" y="51"/>
      <point x="77" y="137" type="curve" smooth="yes"/>
      <point x="77" y="163" type="line" smooth="yes"/>
      <point x="77" y="247"/>
      <point x="119" y="301"/>
      <point x="202" y="301" type="curve" smooth="yes"/>
      <point x="327" y="301" type="line"/>
      <point x="327" y="137" type="line" smooth="yes"/>
      <point x="327" y="48"/>
      <point x="284" y="9"/>
    </contour>
  </outline>
</glyph>
<glyph name="ampersand.ss02" format="2">
  <advance width="490"/>
  <note>
ampersand.002
</note>
  <outline>
    <contour>
      <point x="201" y="-8" type="curve" smooth="yes"/>
      <point x="261" y="-8"/>
      <point x="338" y="21"/>
      <point x="342" y="110" type="curve"/>
      <point x="372" y="75"/>
      <point x="439" y="-3"/>
      <point x="460" y="-3" type="curve"/>
      <point x="460" y="15" type="line"/>
      <point x="445" y="15"/>
      <point x="374" y="98"/>
      <point x="342" y="135" type="curve"/>
      <point x="342" y="301" type="line"/>
      <point x="455" y="301" type="line"/>
      <point x="455" y="317" type="line"/>
      <point x="326" y="317" type="line"/>
      <point x="326" y="152" type="line"/>
      <point x="186" y="319" type="line" smooth="yes"/>
      <point x="161" y="349"/>
      <point x="125" y="404"/>
      <point x="125" y="449" type="curve" smooth="yes"/>
      <point x="125" y="470" type="line" smooth="yes"/>
      <point x="125" y="534"/>
      <point x="159" y="579"/>
      <point x="243" y="579" type="curve" smooth="yes"/>
      <point x="289" y="579"/>
      <point x="335" y="570"/>
      <point x="367" y="549" type="curve"/>
      <point x="367" y="567" type="line"/>
      <point x="332" y="586"/>
      <point x="287" y="595"/>
      <point x="243" y="595" type="curve" smooth="yes"/>
      <point x="154" y="595"/>
      <point x="108" y="543"/>
      <point x="108" y="470" type="curve" smooth="yes"/>
      <point x="108" y="449" type="line" smooth="yes"/>
      <point x="108" y="384"/>
      <point x="161" y="323"/>
      <point x="171" y="309" type="curve"/>
      <point x="91" y="298"/>
      <point x="60" y="232"/>
      <point x="60" y="163" type="curve" smooth="yes"/>
      <point x="60" y="137" type="line" smooth="yes"/>
      <point x="60" y="41"/>
      <point x="114" y="-8"/>
    </contour>
    <contour>
      <point x="201" y="7" type="curve" smooth="yes"/>
      <point x="116" y="9"/>
      <point x="76" y="51"/>
      <point x="76" y="137" type="curve" smooth="yes"/>
      <point x="76" y="163" type="line" smooth="yes"/>
      <point x="76" y="247"/>
      <point x="121" y="290"/>
      <point x="182" y="298" type="curve"/>
      <point x="326" y="127" type="line"/>
      <point x="326" y="56"/>
      <point x="283" y="9"/>
    </contour>
  </outline>
</glyph>
<glyph name="caroncomb.case" format="2">
  <anchor x="252" y="591" name="_top"/>
  <anchor x="252" y="674" name="top"/>
  <outline>
    <contour>
      <point x="244" y="611" type="line"/>
      <point x="259" y="611" type="line"/>
      <point x="340" y="697" type="line"/>
      <point x="320" y="697" type="line"/>
      <point x="251" y="625" type="line"/>
      <point x="179" y="697" type="line"/>
      <point x="161" y="697" type="line"/>
    </contour>
  </outline>
</glyph>
<glyph name="dieresiscomb.case" format="2">
  <anchor x="250" y="591" name="_top"/>
  <anchor x="250" y="658" name="top"/>
  <outline>
    <contour>
      <point x="289" y="643" type="curve" smooth="yes"/>
      <point x="298" y="643"/>
      <point x="303" y="648"/>
      <point x="303" y="657" type="curve" smooth="yes"/>
      <point x="303" y="666"/>
      <point x="298" y="671"/>
      <point x="289" y="671" type="curve" smooth="yes"/>
      <point x="280" y="671"/>
      <point x="275" y="666"/>
      <point x="275" y="657" type="curve" smooth="yes"/>
      <point x="275" y="648"/>
      <point x="280" y="643"/>
    </contour>
    <contour>
      <point x="212" y="643" type="curve" smooth="yes"/>
      <point x="221" y="643"/>
      <point x="226" y="648"/>
      <point x="226" y="657" type="curve" smooth="yes"/>
      <point x="226" y="666"/>
      <point x="221" y="671"/>
      <point x="212" y="671" type="curve" smooth="yes"/>
      <point x="203" y="671"/>
      <point x="198" y="666"/>
      <point x="198" y="657" type="curve" smooth="yes"/>
      <point x="198" y="648"/>
      <point x="203" y="643"/>
    </contour>
  </outline>
</glyph>
<glyph name="f_f_i" format="2">
  <advance width="490"/>
  <note>
f_f_i
</note>
  <anchor x="163.333" y="0" name="caret_1"/>
  <anchor x="326.667" y="0" name="caret_2"/>
  <outline>
    <contour>
      <point x="70" y="0" type="line"/>
      <point x="86" y="0" type="line"/>
      <point x="86" y="458" type="line"/>
      <point x="238" y="458" type="line"/>
      <point x="238" y="0" type="line"/>
      <point x="254" y="0" type="line"/>
      <point x="254" y="458" type="line"/>
      <point x="411" y="458" type="line"/>
      <point x="411" y="474" type="line"/>
      <point x="254" y="474" type="line"/>
      <point x="254" y="548" type="line" smooth="yes"/>
      <point x="254" y="596"/>
      <point x="279" y="621"/>
      <point x="344" y="621" type="curve" smooth="yes"/>
      <point x="367" y="621"/>
      <point x="403" y="617"/>
      <point x="428" y="606" type="curve"/>
      <point x="428" y="623" type="line"/>
      <point x="406" y="630"/>
      <point x="375" y="636"/>
      <point x="343" y="636" type="curve" smooth="yes"/>
      <point x="312" y="636"/>
      <point x="288" y="630"/>
      <point x="270" y="619" type="curve"/>
      <point x="267" y="620" type="line" smooth="yes"/>
      <point x="247" y="628"/>
      <point x="211" y="636"/>
      <point x="175" y="636" type="curve" smooth="yes"/>
      <point x="104" y="636"/>
      <point x="70" y="607"/>
      <point x="70" y="543" type="curve" smooth="yes"/>
      <point x="70" y="474" type="line"/>
      <point x="39" y="474" type="line"/>
      <point x="39" y="458" type="line"/>
      <point x="70" y="458" type="line"/>
    </contour>
    <contour>
      <point x="406" y="0" type="line"/>
      <point x="422" y="0" type="line"/>
      <point x="422" y="474" type="line"/>
      <point x="406" y="474" type="line"/>
    </contour>
    <contour>
      <point x="86" y="474" type="line"/>
      <point x="86" y="548" type="line" smooth="yes"/>
      <point x="86" y="596"/>
      <point x="111" y="621"/>
      <point x="176" y="621" type="curve" smooth="yes"/>
      <point x="198" y="621"/>
      <point x="233" y="617"/>
      <point x="257" y="607" type="curve"/>
      <point x="244" y="592"/>
      <point x="238" y="571"/>
      <point x="238" y="543" type="curve" smooth="yes"/>
      <point x="238" y="474" type="line"/>
    </contour>
  </outline>
</glyph>
<glyph name="gravecomb.case" format="2">
  <note>
gravecomb
</note>
  <anchor x="269" y="591" name="_top"/>
  <anchor x="250" y="528" name="_topviet"/>
  <anchor x="259" y="675" name="top"/>
  <outline>
    <contour>
      <point x="289" y="633" type="line"/>
      <point x="304" y="633" type="line"/>
      <point x="221" y="708" type="line"/>
      <point x="198" y="708" type="line"/>
    </contour>
  </outline>
</glyph>
<glyph name="hookabovecomb.case" format="2">
  <note>
hookabovecomb
</note>
  <anchor x="246" y="591" name="_top"/>
  <anchor x="199" y="538" name="_topviet"/>
  <anchor x="251" y="708" name="top"/>
  <outline>
    <contour>
      <point x="236" y="620" type="line"/>
      <point x="251" y="620" type="line"/>
      <point x="251" y="628" type="line" smooth="yes"/>
      <point x="251" y="650"/>
      <point x="297" y="652"/>
      <point x="297" y="689" type="curve" smooth="yes"/>
      <point x="297" y="693" type="line" smooth="yes"/>
      <point x="297" y="715"/>
      <point x="281" y="728"/>
      <point x="253" y="728" type="curve" smooth="yes"/>
      <point x="223" y="728"/>
      <point x="208" y="716"/>
      <point x="204" y="697" type="curve"/>
      <point x="217" y="692" type="line"/>
      <point x="221" y="708"/>
      <point x="232" y="714"/>
      <point x="253" y="714" type="curve" smooth="yes"/>
      <point x="277" y="714"/>
      <point x="282" y="702"/>
      <point x="282" y="692" type="curve" smooth="yes"/>
      <point x="282" y="689" type="line" smooth="yes"/>
      <point x="282" y="660"/>
      <point x="236" y="661"/>
      <point x="236" y="626" type="curve" smooth="yes"/>
    </contour>
  </outline>
</glyph>
<glyph name="hungarumlautcomb.case" format="2">
  <anchor x="214" y="591" name="_top"/>
  <anchor x="240" y="690" name="top"/>
  <outline>
    <contour>
      <point x="221" y="632" type="line"/>
      <point x="234" y="632" type="line"/>
      <point x="327" y="707" type="line"/>
      <point x="302" y="707" type="line"/>
    </contour>
    <contour>
      <point x="174" y="633" type="line"/>
      <point x="187" y="633" type="line"/>
      <point x="280" y="708" type="line"/>
      <point x="255" y="708" type="line"/>
    </contour>
  </outline>
</glyph>
<glyph name="longs_t" format="2">
  <advance width="393"/>
  <note>
longs_t
</note>
  <anchor x="106" y="0" name="caret_1"/>
  <outline>
    <contour>
      <point x="13" y="-144" type="curve" smooth="yes"/>
      <point x="62" y="-144"/>
      <point x="86" y="-114"/>
      <point x="86" y="-61" type="curve" smooth="yes"/>
      <point x="86" y="548" type="line" smooth="yes"/>
      <point x="86" y="596"/>
      <point x="111" y="621"/>
      <point x="176" y="621" type="curve" smooth="yes"/>
      <point x="204" y="621"/>
      <point x="228" y="619"/>
      <point x="249" y="613" type="curve"/>
      <point x="265" y="625" type="line"/>
      <point x="243" y="631"/>
      <point x="215" y="636"/>
      <point x="175" y="636" type="curve" smooth="yes"/>
      <point x="104" y="636"/>
      <point x="70" y="607"/>
      <point x="70" y="543" type="curve" smooth="yes"/>
      <point x="70" y="442" type="line"/>
      <point x="39" y="442" type="line"/>
      <point x="39" y="426" type="line"/>
      <point x="70" y="426" type="line"/>
      <point x="70" y="-60" type="line" smooth="yes"/>
      <point x="70" y="-96"/>
      <point x="57" y="-129"/>
      <point x="14" y="-129" type="curve" smooth="yes"/>
      <point x="-5" y="-129"/>
      <point x="-22" y="-127"/>
      <point x="-36" y="-125" type="curve"/>
      <point x="-36" y="-141" type="line"/>
      <point x="-37" y="-141"/>
      <point x="-12" y="-144"/>
    </contour>
    <contour>
      <point x="322" y="0" type="curve" smooth="yes"/>
      <point x="347" y="0"/>
      <point x="372" y="3"/>
      <point x="381" y="4" type="curve"/>
      <point x="381" y="20" type="line"/>
      <point x="357" y="17"/>
      <point x="340" y="15"/>
      <point x="321" y="15" type="curve" smooth="yes"/>
      <point x="276" y="15"/>
      <point x="265" y="51"/>
      <point x="265" y="88" type="curve" smooth="yes"/>
      <point x="265" y="479" type="line"/>
      <point x="381" y="479" type="line"/>
      <point x="381" y="495" type="line"/>
      <point x="265" y="495" type="line"/>
      <point x="265" y="625" type="line"/>
      <point x="249" y="623" type="line"/>
      <point x="249" y="495" type="line"/>
      <point x="211" y="493" type="line"/>
      <point x="211" y="479" type="line"/>
      <point x="249" y="479" type="line"/>
      <point x="249" y="93" type="line" smooth="yes"/>
      <point x="249" y="31"/>
      <point x="270" y="0"/>
    </contour>
  </outline>
</glyph>
<glyph name="periodcentered.loclCAT" format="2">
  <outline>
    <contour>
      <point x="0" y="288" type="curve" smooth="yes"/>
      <point x="11" y="288"/>
      <point x="16" y="293"/>
      <point x="16" y="304" type="curve" smooth="yes"/>
      <point x="16" y="315"/>
      <point x="11" y="320"/>
      <point x="0" y="320" type="curve" smooth="yes"/>
      <point x="-11" y="320"/>
      <point x="-16" y="315"/>
      <point x="-16" y="304" type="curve" smooth="yes"/>
      <point x="-16" y="293"/>
      <point x="-11" y="288"/>
    </contour>
  </outline>
</glyph>
<glyph name="ringcomb.case" format="2">
  <anchor x="250" y="591" name="_top"/>
  <anchor x="250" y="702" name="top"/>
  <outline>
    <contour>
      <point x="251" y="619" type="curve" smooth="yes"/>
      <point x="281" y="619"/>
      <point x="304" y="643"/>
      <point x="304" y="672" type="curve" smooth="yes"/>
      <point x="304" y="701"/>
      <point x="281" y="725"/>
      <point x="250" y="725" type="curve" smooth="yes"/>
      <point x="220" y="725"/>
      <point x="196" y="701"/>
      <point x="196" y="672" type="curve" smooth="yes"/>
      <point x="196" y="643"/>
      <point x="220" y="619"/>
    </contour>
    <contour>
      <point x="250" y="635" type="curve" smooth="yes"/>
      <point x="229" y="635"/>
      <point x="212" y="650"/>
      <point x="212" y="672" type="curve" smooth="yes"/>
      <point x="212" y="694"/>
      <point x="229" y="709"/>
      <point x="250" y="709" type="curve" smooth="yes"/>
      <point x="271" y="709"/>
      <point x="288" y="694"/>
      <point x="288" y="672" type="curve" smooth="yes"/>
      <point x="288" y="650"/>
      <point x="271" y="635"/>
    </contour>
  </outline>
</glyph>
